G04 ================== begin FILE IDENTIFICATION RECORD ==================*
G04 Layout Name:  STABILIZATOR.brd*
G04 Film Name:    FAB*
G04 File Format:  Gerber RS274X*
G04 File Origin:  Cadence Allegro 17.2-S025*
G04 Origin Date:  Sat Dec 13 12:08:38 2025*
G04 *
G04 Layer:  MANUFACTURING/NCDRILL_LEGEND*
G04 Layer:  MANUFACTURING/NCDRILL_FIGURE*
G04 Layer:  MANUFACTURING/XSECTION_CHART*
G04 Layer:  MANUFACTURING/NCLEGEND-1-2*
G04 Layer:  DRAWING FORMAT/OUTLINE*
G04 *
G04 Offset:    (0.0000 0.0000)*
G04 Mirror:    No*
G04 Mode:      Positive*
G04 Rotation:  0*
G04 FullContactRelief:  No*
G04 UndefLineWidth:     0.0000*
G04 ================== end FILE IDENTIFICATION RECORD ====================*
%FSLAX25Y25*MOMM*%
%IR0*IPPOS*OFA0.00000B0.00000*MIA0B0*SFA1.00000B1.00000*%
%AMMACRO10*
1,1,0.0,.635,0.0*
20,1,0.0,.635,0.0,.625353,-.110267,0.0*
1,1,0.0,.625353,-.110267*
20,1,0.0,.625353,-.110267,.596705,-.217183,0.0*
1,1,0.0,.596705,-.217183*
20,1,0.0,.596705,-.217183,.549926,-.3175,0.0*
1,1,0.0,.549926,-.3175*
20,1,0.0,.549926,-.3175,.486438,-.40817,0.0*
1,1,0.0,.486438,-.40817*
20,1,0.0,.486438,-.40817,.40817,-.486438,0.0*
1,1,0.0,.40817,-.486438*
20,1,0.0,.40817,-.486438,.3175,-.549926,0.0*
1,1,0.0,.3175,-.549926*
20,1,0.0,.3175,-.549926,.217183,-.596705,0.0*
1,1,0.0,.217183,-.596705*
20,1,0.0,.217183,-.596705,.110267,-.625353,0.0*
1,1,0.0,.110267,-.625353*
20,1,0.0,.110267,-.625353,0.0,-.635,0.0*
1,1,0.0,0.0,-.635*
20,1,0.0,0.0,-.635,-.110267,-.625353,0.0*
1,1,0.0,-.110267,-.625353*
20,1,0.0,-.110267,-.625353,-.217183,-.596705,0.0*
1,1,0.0,-.217183,-.596705*
20,1,0.0,-.217183,-.596705,-.3175,-.549926,0.0*
1,1,0.0,-.3175,-.549926*
20,1,0.0,-.3175,-.549926,-.40817,-.486438,0.0*
1,1,0.0,-.40817,-.486438*
20,1,0.0,-.40817,-.486438,-.486438,-.40817,0.0*
1,1,0.0,-.486438,-.40817*
20,1,0.0,-.486438,-.40817,-.549926,-.3175,0.0*
1,1,0.0,-.549926,-.3175*
20,1,0.0,-.549926,-.3175,-.596705,-.217183,0.0*
1,1,0.0,-.596705,-.217183*
20,1,0.0,-.596705,-.217183,-.625353,-.110267,0.0*
1,1,0.0,-.625353,-.110267*
20,1,0.0,-.625353,-.110267,-.635,0.0,0.0*
1,1,0.0,-.635,0.0*
20,1,0.0,-.635,0.0,-.625353,.110267,0.0*
1,1,0.0,-.625353,.110267*
20,1,0.0,-.625353,.110267,-.596705,.217183,0.0*
1,1,0.0,-.596705,.217183*
20,1,0.0,-.596705,.217183,-.549926,.3175,0.0*
1,1,0.0,-.549926,.3175*
20,1,0.0,-.549926,.3175,-.486438,.40817,0.0*
1,1,0.0,-.486438,.40817*
20,1,0.0,-.486438,.40817,-.40817,.486438,0.0*
1,1,0.0,-.40817,.486438*
20,1,0.0,-.40817,.486438,-.3175,.549926,0.0*
1,1,0.0,-.3175,.549926*
20,1,0.0,-.3175,.549926,-.217183,.596705,0.0*
1,1,0.0,-.217183,.596705*
20,1,0.0,-.217183,.596705,-.110267,.625353,0.0*
1,1,0.0,-.110267,.625353*
20,1,0.0,-.110267,.625353,0.0,.635,0.0*
1,1,0.0,0.0,.635*
20,1,0.0,0.0,.635,.110267,.625353,0.0*
1,1,0.0,.110267,.625353*
20,1,0.0,.110267,.625353,.217183,.596705,0.0*
1,1,0.0,.217183,.596705*
20,1,0.0,.217183,.596705,.3175,.549926,0.0*
1,1,0.0,.3175,.549926*
20,1,0.0,.3175,.549926,.40817,.486438,0.0*
1,1,0.0,.40817,.486438*
20,1,0.0,.40817,.486438,.486438,.40817,0.0*
1,1,0.0,.486438,.40817*
20,1,0.0,.486438,.40817,.549926,.3175,0.0*
1,1,0.0,.549926,.3175*
20,1,0.0,.549926,.3175,.596705,.217183,0.0*
1,1,0.0,.596705,.217183*
20,1,0.0,.596705,.217183,.625353,.110267,0.0*
1,1,0.0,.625353,.110267*
20,1,0.0,.625353,.110267,.635,0.0,0.0*
1,1,0.0,.635,0.0*
1,1,0.0,.3175,0.0*
20,1,0.0,.3175,0.0,-.3175,0.0,0.0*
1,1,0.0,-.3175,0.0*
1,1,0.0,0.0,.3175*
20,1,0.0,0.0,.3175,0.0,-.3175,0.0*
1,1,0.0,0.0,-.3175*
%
%ADD10MACRO10*%
%ADD11C,.1*%
G75*
%LPD*%
G75*
G36*
G01X-5514880Y3221710D02*
Y3164120D01*
X-5451380D01*
Y-1840690D01*
X-5514880D01*
Y-1898280D01*
X-5133880D01*
Y-1840690D01*
X-5197380D01*
Y3164120D01*
X-5133880D01*
Y3221710D01*
X-5514880D01*
G37*
G36*
G01X-6022880Y-1898270D02*
Y-1840680D01*
X-4498880D01*
Y-1898270D01*
X-6022880D01*
G37*
G36*
G01Y3164120D02*
Y3221710D01*
X-4498880D01*
Y3164120D01*
X-6022880D01*
G37*
G54D10*
X-900270Y-2287500D03*
X885000Y2215000D03*
X1060000Y1328000D03*
X1685000Y1794260D03*
X1354000Y2145000D03*
X1558000Y2545000D03*
X1579280Y2748280D03*
X1385000Y3308000D03*
X1685000Y3108000D03*
X2203000Y2593000D03*
X2031000Y3304000D03*
X2203000Y3606000D03*
X1808260Y3421260D03*
Y3165260D03*
X3199000Y2459000D03*
X2522000Y3077000D03*
X2825000Y3327000D03*
X3582000Y2459000D03*
G54D11*
G01X-6480710Y-2345670D02*
Y-2245670D01*
X-6454050D01*
X-6443380Y-2250670D01*
X-6435380Y-2257340D01*
X-6428710Y-2267340D01*
X-6423380Y-2279010D01*
X-6422050Y-2295670D01*
X-6423380Y-2312340D01*
X-6428710Y-2324000D01*
X-6435380Y-2334010D01*
X-6443380Y-2340670D01*
X-6454050Y-2345670D01*
X-6480710D01*
G01X-6329470D02*
X-6382810D01*
Y-2245670D01*
X-6329470D01*
G01X-6350810Y-2294000D02*
X-6382810D01*
G01X-6288900Y-2332340D02*
X-6278230Y-2340670D01*
X-6266230Y-2345670D01*
X-6255570D01*
X-6244900Y-2340670D01*
X-6236900Y-2332340D01*
X-6232900Y-2320670D01*
X-6235570Y-2309010D01*
X-6242230Y-2299000D01*
X-6254230Y-2292340D01*
X-6270230Y-2289000D01*
X-6279570Y-2282340D01*
X-6283570Y-2270670D01*
X-6280900Y-2259000D01*
X-6274230Y-2250670D01*
X-6264900Y-2245670D01*
X-6255570D01*
X-6246230Y-2249000D01*
X-6238230Y-2257340D01*
G01X-6181660Y-2245670D02*
X-6149660D01*
G01X-6165660D02*
Y-2345670D01*
G01X-6181660D02*
X-6149660D01*
G01X-6062420Y-2295670D02*
X-6035750D01*
Y-2325670D01*
X-6043750Y-2335670D01*
X-6053090Y-2342340D01*
X-6066420Y-2345670D01*
X-6079750Y-2342340D01*
X-6089090Y-2335670D01*
X-6097090Y-2325670D01*
X-6102420Y-2314000D01*
X-6105090Y-2300670D01*
Y-2289000D01*
X-6102420Y-2279010D01*
X-6097090Y-2267340D01*
X-6089090Y-2257340D01*
X-6081090Y-2250670D01*
X-6070420Y-2245670D01*
X-6061090D01*
X-6050420Y-2249000D01*
X-6042420Y-2255670D01*
G01X-6005850Y-2345670D02*
Y-2245670D01*
X-5944510Y-2345670D01*
Y-2245670D01*
G01X-5755370Y-2254000D02*
X-5763370Y-2249000D01*
X-5772700Y-2245670D01*
X-5783370D01*
X-5795370Y-2250670D01*
X-5804700Y-2259000D01*
X-5811370Y-2269000D01*
X-5816700Y-2285670D01*
X-5818030Y-2300670D01*
X-5815370Y-2315670D01*
X-5811370Y-2325670D01*
X-5803370Y-2335670D01*
X-5794030Y-2342340D01*
X-5784700Y-2345670D01*
X-5775370D01*
X-5766030Y-2342340D01*
X-5758030Y-2337340D01*
X-5751370Y-2330670D01*
G01X-5716130Y-2345670D02*
Y-2245670D01*
X-5682790D01*
X-5672130Y-2250670D01*
X-5665460Y-2257340D01*
X-5662790Y-2270670D01*
X-5665460Y-2284000D01*
X-5673460Y-2292340D01*
X-5682790Y-2297340D01*
X-5716130D01*
G01X-5682790D02*
X-5662790Y-2345670D01*
G01X-5594220D02*
X-5604890Y-2344000D01*
X-5614220Y-2337340D01*
X-5622220Y-2327340D01*
X-5627550Y-2315670D01*
X-5630220Y-2302340D01*
Y-2289000D01*
X-5627550Y-2275670D01*
X-5622220Y-2264000D01*
X-5614220Y-2254000D01*
X-5604890Y-2247340D01*
X-5594220Y-2245670D01*
X-5583550Y-2247340D01*
X-5574220Y-2254000D01*
X-5566220Y-2264000D01*
X-5560890Y-2275670D01*
X-5558220Y-2289000D01*
Y-2302340D01*
X-5560890Y-2315670D01*
X-5566220Y-2327340D01*
X-5574220Y-2337340D01*
X-5583550Y-2344000D01*
X-5594220Y-2345670D01*
G01X-5526980Y-2332340D02*
X-5516310Y-2340670D01*
X-5504310Y-2345670D01*
X-5493650D01*
X-5482980Y-2340670D01*
X-5474980Y-2332340D01*
X-5470980Y-2320670D01*
X-5473650Y-2309010D01*
X-5480310Y-2299000D01*
X-5492310Y-2292340D01*
X-5508310Y-2289000D01*
X-5517650Y-2282340D01*
X-5521650Y-2270670D01*
X-5518980Y-2259000D01*
X-5512310Y-2250670D01*
X-5502980Y-2245670D01*
X-5493650D01*
X-5484310Y-2249000D01*
X-5476310Y-2257340D01*
G01X-5431740Y-2332340D02*
X-5421070Y-2340670D01*
X-5409070Y-2345670D01*
X-5398410D01*
X-5387740Y-2340670D01*
X-5379740Y-2332340D01*
X-5375740Y-2320670D01*
X-5378410Y-2309010D01*
X-5385070Y-2299000D01*
X-5397070Y-2292340D01*
X-5413070Y-2289000D01*
X-5422410Y-2282340D01*
X-5426410Y-2270670D01*
X-5423740Y-2259000D01*
X-5417070Y-2250670D01*
X-5407740Y-2245670D01*
X-5398410D01*
X-5389070Y-2249000D01*
X-5381070Y-2257340D01*
G01X-5241260Y-2332340D02*
X-5230590Y-2340670D01*
X-5218590Y-2345670D01*
X-5207930D01*
X-5197260Y-2340670D01*
X-5189260Y-2332340D01*
X-5185260Y-2320670D01*
X-5187930Y-2309010D01*
X-5194590Y-2299000D01*
X-5206590Y-2292340D01*
X-5222590Y-2289000D01*
X-5231930Y-2282340D01*
X-5235930Y-2270670D01*
X-5233260Y-2259000D01*
X-5226590Y-2250670D01*
X-5217260Y-2245670D01*
X-5207930D01*
X-5198590Y-2249000D01*
X-5190590Y-2257340D01*
G01X-5091350Y-2345670D02*
X-5144690D01*
Y-2245670D01*
X-5091350D01*
G01X-5112690Y-2294000D02*
X-5144690D01*
G01X-4993450Y-2254000D02*
X-5001450Y-2249000D01*
X-5010780Y-2245670D01*
X-5021450D01*
X-5033450Y-2250670D01*
X-5042780Y-2259000D01*
X-5049450Y-2269000D01*
X-5054780Y-2285670D01*
X-5056110Y-2300670D01*
X-5053450Y-2315670D01*
X-5049450Y-2325670D01*
X-5041450Y-2335670D01*
X-5032110Y-2342340D01*
X-5022780Y-2345670D01*
X-5013450D01*
X-5004110Y-2342340D01*
X-4996110Y-2337340D01*
X-4989450Y-2330670D01*
G01X-4927540Y-2245670D02*
Y-2345670D01*
G01X-4958210Y-2245670D02*
X-4896870D01*
G01X-4848300D02*
X-4816300D01*
G01X-4832300D02*
Y-2345670D01*
G01X-4848300D02*
X-4816300D01*
G01X-4737060D02*
X-4747730Y-2344000D01*
X-4757060Y-2337340D01*
X-4765060Y-2327340D01*
X-4770390Y-2315670D01*
X-4773060Y-2302340D01*
Y-2289000D01*
X-4770390Y-2275670D01*
X-4765060Y-2264000D01*
X-4757060Y-2254000D01*
X-4747730Y-2247340D01*
X-4737060Y-2245670D01*
X-4726390Y-2247340D01*
X-4717060Y-2254000D01*
X-4709060Y-2264000D01*
X-4703730Y-2275670D01*
X-4701060Y-2289000D01*
Y-2302340D01*
X-4703730Y-2315670D01*
X-4709060Y-2327340D01*
X-4717060Y-2337340D01*
X-4726390Y-2344000D01*
X-4737060Y-2345670D01*
G01X-4672490D02*
Y-2245670D01*
X-4611150Y-2345670D01*
Y-2245670D01*
G01X-4422010Y-2254000D02*
X-4430010Y-2249000D01*
X-4439340Y-2245670D01*
X-4450010D01*
X-4462010Y-2250670D01*
X-4471340Y-2259000D01*
X-4478010Y-2269000D01*
X-4483340Y-2285670D01*
X-4484670Y-2300670D01*
X-4482010Y-2315670D01*
X-4478010Y-2325670D01*
X-4470010Y-2335670D01*
X-4460670Y-2342340D01*
X-4451340Y-2345670D01*
X-4442010D01*
X-4432670Y-2342340D01*
X-4424670Y-2337340D01*
X-4418010Y-2330670D01*
G01X-4384100Y-2345670D02*
Y-2245670D01*
G01X-4328100D02*
Y-2345670D01*
G01Y-2295670D02*
X-4384100D01*
G01X-4294190Y-2345670D02*
X-4260860Y-2245670D01*
X-4227530Y-2345670D01*
G01X-4239530Y-2310670D02*
X-4282190D01*
G01X-4192290Y-2345670D02*
Y-2245670D01*
X-4158950D01*
X-4148290Y-2250670D01*
X-4141620Y-2257340D01*
X-4138950Y-2270670D01*
X-4141620Y-2284000D01*
X-4149620Y-2292340D01*
X-4158950Y-2297340D01*
X-4192290D01*
G01X-4158950D02*
X-4138950Y-2345670D01*
G01X-4070380Y-2245670D02*
Y-2345670D01*
G01X-4101050Y-2245670D02*
X-4039710D01*
G01X-6539000Y-2379000D02*
X-6459000D01*
G01X-6443760D02*
X-6363760D01*
G01X-6348520D02*
X-6268520D01*
G01X-6253280D02*
X-6173280D01*
G01X-6158040D02*
X-6078040D01*
G01X-6062800D02*
X-5982800D01*
G01X-5967560D02*
X-5887560D01*
G01X-5872320D02*
X-5792320D01*
G01X-5777080D02*
X-5697080D01*
G01X-5681840D02*
X-5601840D01*
G01X-5586600D02*
X-5506600D01*
G01X-5491360D02*
X-5411360D01*
G01X-5396120D02*
X-5316120D01*
G01X-5300880D02*
X-5220880D01*
G01X-5205640D02*
X-5125640D01*
G01X-5110400D02*
X-5030400D01*
G01X-5015160D02*
X-4935160D01*
G01X-4919920D02*
X-4839920D01*
G01X-4824680D02*
X-4744680D01*
G01X-4729440D02*
X-4649440D01*
G01X-4634200D02*
X-4554200D01*
G01X-4538960D02*
X-4458960D01*
G01X-4443720D02*
X-4363720D01*
G01X-4348480D02*
X-4268480D01*
G01X-4253240D02*
X-4173240D01*
G01X-4158000D02*
X-4078000D01*
G01X-4062760D02*
X-3982760D01*
G01X-6260900Y-2425670D02*
Y-2525670D01*
G01X-6291570Y-2425670D02*
X-6230230D01*
G01X-6165660Y-2525670D02*
X-6176330Y-2524000D01*
X-6185660Y-2517340D01*
X-6193660Y-2507340D01*
X-6198990Y-2495670D01*
X-6201660Y-2482340D01*
Y-2469000D01*
X-6198990Y-2455670D01*
X-6193660Y-2444000D01*
X-6185660Y-2434000D01*
X-6176330Y-2427340D01*
X-6165660Y-2425670D01*
X-6154990Y-2427340D01*
X-6145660Y-2434000D01*
X-6137660Y-2444000D01*
X-6132330Y-2455670D01*
X-6129660Y-2469000D01*
Y-2482340D01*
X-6132330Y-2495670D01*
X-6137660Y-2507340D01*
X-6145660Y-2517340D01*
X-6154990Y-2524000D01*
X-6165660Y-2525670D01*
G01X-6070420Y-2425670D02*
Y-2525670D01*
G01X-6101090Y-2425670D02*
X-6039750D01*
G01X-6008510Y-2525670D02*
X-5975180Y-2425670D01*
X-5941850Y-2525670D01*
G01X-5953850Y-2490670D02*
X-5996510D01*
G01X-5906610Y-2425670D02*
Y-2525670D01*
X-5853270D01*
G01X-5689460Y-2425670D02*
Y-2525670D01*
G01X-5720130Y-2425670D02*
X-5658790D01*
G01X-5622220Y-2525670D02*
Y-2425670D01*
G01X-5566220D02*
Y-2525670D01*
G01Y-2475670D02*
X-5622220D01*
G01X-5514980Y-2425670D02*
X-5482980D01*
G01X-5498980D02*
Y-2525670D01*
G01X-5514980D02*
X-5482980D01*
G01X-5374410Y-2434000D02*
X-5382410Y-2429000D01*
X-5391740Y-2425670D01*
X-5402410D01*
X-5414410Y-2430670D01*
X-5423740Y-2439000D01*
X-5430410Y-2449000D01*
X-5435740Y-2465670D01*
X-5437070Y-2480670D01*
X-5434410Y-2495670D01*
X-5430410Y-2505670D01*
X-5422410Y-2515670D01*
X-5413070Y-2522340D01*
X-5403740Y-2525670D01*
X-5394410D01*
X-5385070Y-2522340D01*
X-5377070Y-2517340D01*
X-5370410Y-2510670D01*
G01X-5337830Y-2525670D02*
Y-2425670D01*
G01X-5287170D02*
X-5337830Y-2487340D01*
G01X-5279170Y-2525670D02*
X-5315170Y-2459010D01*
G01X-5243930Y-2525670D02*
Y-2425670D01*
X-5182590Y-2525670D01*
Y-2425670D01*
G01X-5091350Y-2525670D02*
X-5144690D01*
Y-2425670D01*
X-5091350D01*
G01X-5112690Y-2474000D02*
X-5144690D01*
G01X-5050780Y-2512340D02*
X-5040110Y-2520670D01*
X-5028110Y-2525670D01*
X-5017450D01*
X-5006780Y-2520670D01*
X-4998780Y-2512340D01*
X-4994780Y-2500670D01*
X-4997450Y-2489010D01*
X-5004110Y-2479000D01*
X-5016110Y-2472340D01*
X-5032110Y-2469000D01*
X-5041450Y-2462340D01*
X-5045450Y-2450670D01*
X-5042780Y-2439000D01*
X-5036110Y-2430670D01*
X-5026780Y-2425670D01*
X-5017450D01*
X-5008110Y-2429000D01*
X-5000110Y-2437340D01*
G01X-4955540Y-2512340D02*
X-4944870Y-2520670D01*
X-4932870Y-2525670D01*
X-4922210D01*
X-4911540Y-2520670D01*
X-4903540Y-2512340D01*
X-4899540Y-2500670D01*
X-4902210Y-2489010D01*
X-4908870Y-2479000D01*
X-4920870Y-2472340D01*
X-4936870Y-2469000D01*
X-4946210Y-2462340D01*
X-4950210Y-2450670D01*
X-4947540Y-2439000D01*
X-4940870Y-2430670D01*
X-4931540Y-2425670D01*
X-4922210D01*
X-4912870Y-2429000D01*
X-4904870Y-2437340D01*
G01X-4737060Y-2525670D02*
Y-2425670D01*
X-4753060Y-2445670D01*
G01Y-2525670D02*
X-4721060D01*
G01X-4641820Y-2529000D02*
X-4644490Y-2527340D01*
Y-2524000D01*
X-4641820Y-2522340D01*
X-4639150Y-2524000D01*
Y-2527340D01*
X-4641820Y-2529000D01*
G01X-4571910Y-2484010D02*
X-4562580Y-2472340D01*
X-4554580Y-2465670D01*
X-4543910Y-2462340D01*
X-4534580Y-2465670D01*
X-4527910Y-2472340D01*
X-4522580Y-2482340D01*
X-4521250Y-2494000D01*
X-4522580Y-2504000D01*
X-4527910Y-2514010D01*
X-4535910Y-2522340D01*
X-4545250Y-2525670D01*
X-4555910Y-2522340D01*
X-4565250Y-2512340D01*
X-4570580Y-2497340D01*
X-4571910Y-2480670D01*
X-4569250Y-2459010D01*
X-4565250Y-2447340D01*
X-4558580Y-2435670D01*
X-4549250Y-2427340D01*
X-4539910Y-2425670D01*
X-4530580Y-2429000D01*
X-4523910Y-2437340D01*
G01X-4390770Y-2525670D02*
Y-2425670D01*
X-4356100Y-2509000D01*
X-4321430Y-2425670D01*
Y-2525670D01*
G01X-4295530D02*
Y-2425670D01*
X-4260860Y-2509000D01*
X-4226190Y-2425670D01*
Y-2525670D01*
G01X-5324380Y3361710D02*
X-5424380D01*
X-5404380Y3345710D01*
G01X-5324380D02*
Y3377710D01*
G01X-5357710Y3439620D02*
Y3474280D01*
G01X-5407710Y3526860D02*
X-5417710Y3534860D01*
X-5422710Y3544190D01*
X-5424380Y3554860D01*
X-5421050Y3568190D01*
X-5412710Y3577520D01*
X-5402710Y3580190D01*
X-5392710Y3578860D01*
X-5384380Y3573520D01*
X-5367710Y3546860D01*
X-5356050Y3534860D01*
X-5339380Y3526860D01*
X-5324380Y3524190D01*
Y3580190D01*
G01X-4390310Y-1874010D02*
Y-1974010D01*
X-4336970D01*
G01X-4293730Y-1890680D02*
X-4285730Y-1880680D01*
X-4276400Y-1875680D01*
X-4265730Y-1874010D01*
X-4252400Y-1877340D01*
X-4243070Y-1885680D01*
X-4240400Y-1895680D01*
X-4241730Y-1905680D01*
X-4247070Y-1914010D01*
X-4273730Y-1930680D01*
X-4285730Y-1942340D01*
X-4293730Y-1959010D01*
X-4296400Y-1974010D01*
X-4240400D01*
G01X-4067250Y-1920680D02*
X-4061920Y-1915680D01*
X-4057920Y-1907350D01*
X-4055250Y-1895680D01*
X-4057920Y-1885680D01*
X-4063250Y-1879010D01*
X-4072590Y-1874010D01*
X-4108590D01*
Y-1974010D01*
X-4064590D01*
X-4055250Y-1967340D01*
X-4049920Y-1957340D01*
X-4047250Y-1945680D01*
X-4049920Y-1934010D01*
X-4057920Y-1924010D01*
X-4067250Y-1920680D01*
X-4108590D01*
G01X-3982680Y-1974010D02*
X-3993350Y-1972340D01*
X-4002680Y-1965680D01*
X-4010680Y-1955680D01*
X-4016010Y-1944010D01*
X-4018680Y-1930680D01*
Y-1917340D01*
X-4016010Y-1904010D01*
X-4010680Y-1892340D01*
X-4002680Y-1882340D01*
X-3993350Y-1875680D01*
X-3982680Y-1874010D01*
X-3972010Y-1875680D01*
X-3962680Y-1882340D01*
X-3954680Y-1892340D01*
X-3949350Y-1904010D01*
X-3946680Y-1917340D01*
Y-1930680D01*
X-3949350Y-1944010D01*
X-3954680Y-1955680D01*
X-3962680Y-1965680D01*
X-3972010Y-1972340D01*
X-3982680Y-1974010D01*
G01X-3887440Y-1874010D02*
Y-1974010D01*
G01X-3918110Y-1874010D02*
X-3856770D01*
G01X-3792200D02*
Y-1974010D01*
G01X-3822870Y-1874010D02*
X-3761530D01*
G01X-3696960Y-1974010D02*
X-3707630Y-1972340D01*
X-3716960Y-1965680D01*
X-3724960Y-1955680D01*
X-3730290Y-1944010D01*
X-3732960Y-1930680D01*
Y-1917340D01*
X-3730290Y-1904010D01*
X-3724960Y-1892340D01*
X-3716960Y-1882340D01*
X-3707630Y-1875680D01*
X-3696960Y-1874010D01*
X-3686290Y-1875680D01*
X-3676960Y-1882340D01*
X-3668960Y-1892340D01*
X-3663630Y-1904010D01*
X-3660960Y-1917340D01*
Y-1930680D01*
X-3663630Y-1944010D01*
X-3668960Y-1955680D01*
X-3676960Y-1965680D01*
X-3686290Y-1972340D01*
X-3696960Y-1974010D01*
G01X-3636390D02*
Y-1874010D01*
X-3601720Y-1957340D01*
X-3567050Y-1874010D01*
Y-1974010D01*
G01X-3381910Y-1882340D02*
X-3389910Y-1877340D01*
X-3399240Y-1874010D01*
X-3409910D01*
X-3421910Y-1879010D01*
X-3431240Y-1887340D01*
X-3437910Y-1897340D01*
X-3443240Y-1914010D01*
X-3444570Y-1929010D01*
X-3441910Y-1944010D01*
X-3437910Y-1954010D01*
X-3429910Y-1964010D01*
X-3420570Y-1970680D01*
X-3411240Y-1974010D01*
X-3401910D01*
X-3392570Y-1970680D01*
X-3384570Y-1965680D01*
X-3377910Y-1959010D01*
G01X-3316000Y-1974010D02*
X-3326670Y-1972340D01*
X-3336000Y-1965680D01*
X-3344000Y-1955680D01*
X-3349330Y-1944010D01*
X-3352000Y-1930680D01*
Y-1917340D01*
X-3349330Y-1904010D01*
X-3344000Y-1892340D01*
X-3336000Y-1882340D01*
X-3326670Y-1875680D01*
X-3316000Y-1874010D01*
X-3305330Y-1875680D01*
X-3296000Y-1882340D01*
X-3288000Y-1892340D01*
X-3282670Y-1904010D01*
X-3280000Y-1917340D01*
Y-1930680D01*
X-3282670Y-1944010D01*
X-3288000Y-1955680D01*
X-3296000Y-1965680D01*
X-3305330Y-1972340D01*
X-3316000Y-1974010D01*
G01X-3251430D02*
Y-1874010D01*
X-3190090Y-1974010D01*
Y-1874010D01*
G01X-3154850Y-1974010D02*
Y-1874010D01*
X-3128190D01*
X-3117520Y-1879010D01*
X-3109520Y-1885680D01*
X-3102850Y-1895680D01*
X-3097520Y-1907350D01*
X-3096190Y-1924010D01*
X-3097520Y-1940680D01*
X-3102850Y-1952340D01*
X-3109520Y-1962350D01*
X-3117520Y-1969010D01*
X-3128190Y-1974010D01*
X-3154850D01*
G01X-3059610Y-1874010D02*
Y-1945680D01*
X-3054280Y-1960680D01*
X-3043610Y-1970680D01*
X-3030280Y-1974010D01*
X-3016950Y-1970680D01*
X-3006280Y-1960680D01*
X-3000950Y-1945680D01*
Y-1874010D01*
G01X-2905710Y-1882340D02*
X-2913710Y-1877340D01*
X-2923040Y-1874010D01*
X-2933710D01*
X-2945710Y-1879010D01*
X-2955040Y-1887340D01*
X-2961710Y-1897340D01*
X-2967040Y-1914010D01*
X-2968370Y-1929010D01*
X-2965710Y-1944010D01*
X-2961710Y-1954010D01*
X-2953710Y-1964010D01*
X-2944370Y-1970680D01*
X-2935040Y-1974010D01*
X-2925710D01*
X-2916370Y-1970680D01*
X-2908370Y-1965680D01*
X-2901710Y-1959010D01*
G01X-2839800Y-1874010D02*
Y-1974010D01*
G01X-2870470Y-1874010D02*
X-2809130D01*
G01X-2744560Y-1974010D02*
X-2755230Y-1972340D01*
X-2764560Y-1965680D01*
X-2772560Y-1955680D01*
X-2777890Y-1944010D01*
X-2780560Y-1930680D01*
Y-1917340D01*
X-2777890Y-1904010D01*
X-2772560Y-1892340D01*
X-2764560Y-1882340D01*
X-2755230Y-1875680D01*
X-2744560Y-1874010D01*
X-2733890Y-1875680D01*
X-2724560Y-1882340D01*
X-2716560Y-1892340D01*
X-2711230Y-1904010D01*
X-2708560Y-1917340D01*
Y-1930680D01*
X-2711230Y-1944010D01*
X-2716560Y-1955680D01*
X-2724560Y-1965680D01*
X-2733890Y-1972340D01*
X-2744560Y-1974010D01*
G01X-2675990D02*
Y-1874010D01*
X-2642650D01*
X-2631990Y-1879010D01*
X-2625320Y-1885680D01*
X-2622650Y-1899010D01*
X-2625320Y-1912340D01*
X-2633320Y-1920680D01*
X-2642650Y-1925680D01*
X-2675990D01*
G01X-2642650D02*
X-2622650Y-1974010D01*
G01X-4202490Y-2110670D02*
X-4143830Y-2037340D01*
G01X-4173160Y-2024010D02*
Y-2124010D01*
G01X-4143830Y-2110670D02*
X-4202490Y-2037340D01*
G01X-4213160Y-2074010D02*
X-4133160D01*
G01X-3915440Y-2094010D02*
X-3904770Y-2102340D01*
X-3892770Y-2107340D01*
X-3882110D01*
X-3871440Y-2102340D01*
X-3863440Y-2094010D01*
X-3859440Y-2082340D01*
X-3862110Y-2070680D01*
X-3868770Y-2060670D01*
X-3880770Y-2054010D01*
X-3896770Y-2050670D01*
X-3906110Y-2044010D01*
X-3910110Y-2032340D01*
X-3907440Y-2020670D01*
X-3900770Y-2012340D01*
X-3891440Y-2007340D01*
X-3882110D01*
X-3872770Y-2010670D01*
X-3864770Y-2019010D01*
G01X-3821530Y-2007340D02*
Y-2079010D01*
X-3816200Y-2094010D01*
X-3805530Y-2104010D01*
X-3792200Y-2107340D01*
X-3778870Y-2104010D01*
X-3768200Y-2094010D01*
X-3762870Y-2079010D01*
Y-2007340D01*
G01X-3723630Y-2107340D02*
Y-2007340D01*
X-3690290D01*
X-3679630Y-2012340D01*
X-3672960Y-2019010D01*
X-3670290Y-2032340D01*
X-3672960Y-2045670D01*
X-3680960Y-2054010D01*
X-3690290Y-2059010D01*
X-3723630D01*
G01X-3690290D02*
X-3670290Y-2107340D01*
G01X-3627050D02*
Y-2007340D01*
X-3576390D01*
G01X-3595050Y-2055670D02*
X-3627050D01*
G01X-3539810Y-2107340D02*
X-3506480Y-2007340D01*
X-3473150Y-2107340D01*
G01X-3485150Y-2072340D02*
X-3527810D01*
G01X-3381910Y-2015670D02*
X-3389910Y-2010670D01*
X-3399240Y-2007340D01*
X-3409910D01*
X-3421910Y-2012340D01*
X-3431240Y-2020670D01*
X-3437910Y-2030670D01*
X-3443240Y-2047340D01*
X-3444570Y-2062340D01*
X-3441910Y-2077340D01*
X-3437910Y-2087340D01*
X-3429910Y-2097340D01*
X-3420570Y-2104010D01*
X-3411240Y-2107340D01*
X-3401910D01*
X-3392570Y-2104010D01*
X-3384570Y-2099010D01*
X-3377910Y-2092340D01*
G01X-3289330Y-2107340D02*
X-3342670D01*
Y-2007340D01*
X-3289330D01*
G01X-3310670Y-2055670D02*
X-3342670D01*
G01X-4202490Y658390D02*
X-4143830Y731720D01*
G01X-4173160Y745050D02*
Y645050D01*
G01X-4143830Y658390D02*
X-4202490Y731720D01*
G01X-4213160Y695050D02*
X-4133160D01*
G01X-3916770Y661720D02*
Y761720D01*
X-3890110D01*
X-3879440Y756720D01*
X-3871440Y750050D01*
X-3864770Y740050D01*
X-3859440Y728380D01*
X-3858110Y711720D01*
X-3859440Y695050D01*
X-3864770Y683390D01*
X-3871440Y673380D01*
X-3879440Y666720D01*
X-3890110Y661720D01*
X-3916770D01*
G01X-3808200Y761720D02*
X-3776200D01*
G01X-3792200D02*
Y661720D01*
G01X-3808200D02*
X-3776200D01*
G01X-3670290D02*
X-3723630D01*
Y761720D01*
X-3670290D01*
G01X-3691630Y713390D02*
X-3723630D01*
G01X-3628390Y761720D02*
Y661720D01*
X-3575050D01*
G01X-3479810D02*
X-3533150D01*
Y761720D01*
X-3479810D01*
G01X-3501150Y713390D02*
X-3533150D01*
G01X-3381910Y753390D02*
X-3389910Y758390D01*
X-3399240Y761720D01*
X-3409910D01*
X-3421910Y756720D01*
X-3431240Y748390D01*
X-3437910Y738390D01*
X-3443240Y721720D01*
X-3444570Y706720D01*
X-3441910Y691720D01*
X-3437910Y681720D01*
X-3429910Y671720D01*
X-3420570Y665050D01*
X-3411240Y661720D01*
X-3401910D01*
X-3392570Y665050D01*
X-3384570Y670050D01*
X-3377910Y676720D01*
G01X-3316000Y761720D02*
Y661720D01*
G01X-3346670Y761720D02*
X-3285330D01*
G01X-3247430Y661720D02*
Y761720D01*
X-3214090D01*
X-3203430Y756720D01*
X-3196760Y750050D01*
X-3194090Y736720D01*
X-3196760Y723390D01*
X-3204760Y715050D01*
X-3214090Y710050D01*
X-3247430D01*
G01X-3214090D02*
X-3194090Y661720D01*
G01X-3141520Y761720D02*
X-3109520D01*
G01X-3125520D02*
Y661720D01*
G01X-3141520D02*
X-3109520D01*
G01X-3000950Y753390D02*
X-3008950Y758390D01*
X-3018280Y761720D01*
X-3028950D01*
X-3040950Y756720D01*
X-3050280Y748390D01*
X-3056950Y738390D01*
X-3062280Y721720D01*
X-3063610Y706720D01*
X-3060950Y691720D01*
X-3056950Y681720D01*
X-3048950Y671720D01*
X-3039610Y665050D01*
X-3030280Y661720D01*
X-3020950D01*
X-3011610Y665050D01*
X-3003610Y670050D01*
X-2996950Y676720D01*
G01X-4202490Y3251710D02*
X-4143830Y3325040D01*
G01X-4173160Y3338370D02*
Y3238370D01*
G01X-4143830Y3251710D02*
X-4202490Y3325040D01*
G01X-4213160Y3288370D02*
X-4133160D01*
G01X-3915440Y3268370D02*
X-3904770Y3260040D01*
X-3892770Y3255040D01*
X-3882110D01*
X-3871440Y3260040D01*
X-3863440Y3268370D01*
X-3859440Y3280040D01*
X-3862110Y3291700D01*
X-3868770Y3301710D01*
X-3880770Y3308370D01*
X-3896770Y3311710D01*
X-3906110Y3318370D01*
X-3910110Y3330040D01*
X-3907440Y3341710D01*
X-3900770Y3350040D01*
X-3891440Y3355040D01*
X-3882110D01*
X-3872770Y3351710D01*
X-3864770Y3343370D01*
G01X-3821530Y3355040D02*
Y3283370D01*
X-3816200Y3268370D01*
X-3805530Y3258370D01*
X-3792200Y3255040D01*
X-3778870Y3258370D01*
X-3768200Y3268370D01*
X-3762870Y3283370D01*
Y3355040D01*
G01X-3723630Y3255040D02*
Y3355040D01*
X-3690290D01*
X-3679630Y3350040D01*
X-3672960Y3343370D01*
X-3670290Y3330040D01*
X-3672960Y3316710D01*
X-3680960Y3308370D01*
X-3690290Y3303370D01*
X-3723630D01*
G01X-3690290D02*
X-3670290Y3255040D01*
G01X-3627050D02*
Y3355040D01*
X-3576390D01*
G01X-3595050Y3306710D02*
X-3627050D01*
G01X-3539810Y3255040D02*
X-3506480Y3355040D01*
X-3473150Y3255040D01*
G01X-3485150Y3290040D02*
X-3527810D01*
G01X-3381910Y3346710D02*
X-3389910Y3351710D01*
X-3399240Y3355040D01*
X-3409910D01*
X-3421910Y3350040D01*
X-3431240Y3341710D01*
X-3437910Y3331710D01*
X-3443240Y3315040D01*
X-3444570Y3300040D01*
X-3441910Y3285040D01*
X-3437910Y3275040D01*
X-3429910Y3265040D01*
X-3420570Y3258370D01*
X-3411240Y3255040D01*
X-3401910D01*
X-3392570Y3258370D01*
X-3384570Y3263370D01*
X-3377910Y3270040D01*
G01X-3289330Y3255040D02*
X-3342670D01*
Y3355040D01*
X-3289330D01*
G01X-3310670Y3306710D02*
X-3342670D01*
G01X-4390310Y3188380D02*
Y3088380D01*
X-4336970D01*
G01X-4268400D02*
Y3188380D01*
X-4284400Y3168380D01*
G01Y3088380D02*
X-4252400D01*
G01X-4077920Y3188380D02*
Y3088380D01*
G01X-4108590Y3188380D02*
X-4047250D01*
G01X-3982680Y3088380D02*
X-3993350Y3090050D01*
X-4002680Y3096710D01*
X-4010680Y3106710D01*
X-4016010Y3118380D01*
X-4018680Y3131710D01*
Y3145050D01*
X-4016010Y3158380D01*
X-4010680Y3170050D01*
X-4002680Y3180050D01*
X-3993350Y3186710D01*
X-3982680Y3188380D01*
X-3972010Y3186710D01*
X-3962680Y3180050D01*
X-3954680Y3170050D01*
X-3949350Y3158380D01*
X-3946680Y3145050D01*
Y3131710D01*
X-3949350Y3118380D01*
X-3954680Y3106710D01*
X-3962680Y3096710D01*
X-3972010Y3090050D01*
X-3982680Y3088380D01*
G01X-3914110D02*
Y3188380D01*
X-3882110D01*
X-3871440Y3183380D01*
X-3863440Y3171710D01*
X-3860770Y3158380D01*
X-3863440Y3145050D01*
X-3870110Y3135050D01*
X-3882110Y3130040D01*
X-3914110D01*
G01X-3667630Y3180050D02*
X-3675630Y3185050D01*
X-3684960Y3188380D01*
X-3695630D01*
X-3707630Y3183380D01*
X-3716960Y3175050D01*
X-3723630Y3165050D01*
X-3728960Y3148380D01*
X-3730290Y3133380D01*
X-3727630Y3118380D01*
X-3723630Y3108380D01*
X-3715630Y3098380D01*
X-3706290Y3091710D01*
X-3696960Y3088380D01*
X-3687630D01*
X-3678290Y3091710D01*
X-3670290Y3096710D01*
X-3663630Y3103380D01*
G01X-3601720Y3088380D02*
X-3612390Y3090050D01*
X-3621720Y3096710D01*
X-3629720Y3106710D01*
X-3635050Y3118380D01*
X-3637720Y3131710D01*
Y3145050D01*
X-3635050Y3158380D01*
X-3629720Y3170050D01*
X-3621720Y3180050D01*
X-3612390Y3186710D01*
X-3601720Y3188380D01*
X-3591050Y3186710D01*
X-3581720Y3180050D01*
X-3573720Y3170050D01*
X-3568390Y3158380D01*
X-3565720Y3145050D01*
Y3131710D01*
X-3568390Y3118380D01*
X-3573720Y3106710D01*
X-3581720Y3096710D01*
X-3591050Y3090050D01*
X-3601720Y3088380D01*
G01X-3537150D02*
Y3188380D01*
X-3475810Y3088380D01*
Y3188380D01*
G01X-3440570Y3088380D02*
Y3188380D01*
X-3413910D01*
X-3403240Y3183380D01*
X-3395240Y3176710D01*
X-3388570Y3166710D01*
X-3383240Y3155040D01*
X-3381910Y3138380D01*
X-3383240Y3121710D01*
X-3388570Y3110050D01*
X-3395240Y3100040D01*
X-3403240Y3093380D01*
X-3413910Y3088380D01*
X-3440570D01*
G01X-3345330Y3188380D02*
Y3116710D01*
X-3340000Y3101710D01*
X-3329330Y3091710D01*
X-3316000Y3088380D01*
X-3302670Y3091710D01*
X-3292000Y3101710D01*
X-3286670Y3116710D01*
Y3188380D01*
G01X-3191430Y3180050D02*
X-3199430Y3185050D01*
X-3208760Y3188380D01*
X-3219430D01*
X-3231430Y3183380D01*
X-3240760Y3175050D01*
X-3247430Y3165050D01*
X-3252760Y3148380D01*
X-3254090Y3133380D01*
X-3251430Y3118380D01*
X-3247430Y3108380D01*
X-3239430Y3098380D01*
X-3230090Y3091710D01*
X-3220760Y3088380D01*
X-3211430D01*
X-3202090Y3091710D01*
X-3194090Y3096710D01*
X-3187430Y3103380D01*
G01X-3125520Y3188380D02*
Y3088380D01*
G01X-3156190Y3188380D02*
X-3094850D01*
G01X-3030280Y3088380D02*
X-3040950Y3090050D01*
X-3050280Y3096710D01*
X-3058280Y3106710D01*
X-3063610Y3118380D01*
X-3066280Y3131710D01*
Y3145050D01*
X-3063610Y3158380D01*
X-3058280Y3170050D01*
X-3050280Y3180050D01*
X-3040950Y3186710D01*
X-3030280Y3188380D01*
X-3019610Y3186710D01*
X-3010280Y3180050D01*
X-3002280Y3170050D01*
X-2996950Y3158380D01*
X-2994280Y3145050D01*
Y3131710D01*
X-2996950Y3118380D01*
X-3002280Y3106710D01*
X-3010280Y3096710D01*
X-3019610Y3090050D01*
X-3030280Y3088380D01*
G01X-2961710D02*
Y3188380D01*
X-2928370D01*
X-2917710Y3183380D01*
X-2911040Y3176710D01*
X-2908370Y3163380D01*
X-2911040Y3150050D01*
X-2919040Y3141710D01*
X-2928370Y3136710D01*
X-2961710D01*
G01X-2928370D02*
X-2908370Y3088380D01*
M02*
