M48
METRIC,TZ
T01C.4
;LEADER: 12 
;HEADER: 
;CODE  : ASCII 
;FILE  : STABILIZATOR-1-2.drl for  ... layers TOP and BOTTOM
;DESIGN: STABILIZATOR.brd
;T01 Holesize 1. = 0.400000 Tolerance = +0.000000/-0.000000 PLATED MM Quantity = 20
%
G90
T01
X1808260Y3165260
X1808260Y3421260
X3704000Y2462000
X3199000Y2459000
X2825000Y3327000
X2522000Y3077000
X1354000Y2145000
X1060000Y1328000
X2203000Y3241000
X2203000Y2593000
X1685000Y1794260
X2203000Y3606000
X2203000Y3241000
X1685000Y3108000
X2220000Y533000
X2097000Y817000
X1579280Y2748280
X1385000Y3308000
X1088000Y2545000
X1558000Y2545000
M30
