G04 ================== begin FILE IDENTIFICATION RECORD ==================*
G04 Layout Name:  STABILIZATOR.brd*
G04 Film Name:    TOP*
G04 File Format:  Gerber RS274X*
G04 File Origin:  Cadence Allegro 17.2-S025*
G04 Origin Date:  Sat Dec 13 12:08:38 2025*
G04 *
G04 Layer:  ETCH/TOP*
G04 Layer:  PIN/TOP*
G04 Layer:  VIA CLASS/TOP*
G04 *
G04 Offset:    (0.0000 0.0000)*
G04 Mirror:    No*
G04 Mode:      Positive*
G04 Rotation:  0*
G04 FullContactRelief:  No*
G04 UndefLineWidth:     0.0000*
G04 ================== end FILE IDENTIFICATION RECORD ====================*
%FSLAX25Y25*MOMM*%
%IR0*IPPOS*OFA0.00000B0.00000*MIA0B0*SFA1.00000B1.00000*%
%ADD13C,.7*%
%ADD11R,.95X1.4501*%
%ADD10R,1.4501X.95*%
%ADD18R,.9144X1.27*%
%ADD17R,1.27X.9144*%
%ADD19R,1.3X2.*%
%ADD16C,1.*%
%ADD20R,1.3X1.3*%
%ADD15R,1.2192X1.9304*%
%ADD12R,3.048X1.9304*%
%ADD14R,1.9304X1.2192*%
%ADD21C,.4*%
%ADD22C,.45*%
%ADD23C,.65*%
%ADD24C,2.0004*%
G75*
%LPD*%
G75*
G36*
G01X100010Y100010D02*
Y3899990D01*
X3899990D01*
Y2618350D01*
G02X3882650Y2611160I-10160J-2D01*
G01X3782790Y2711020D01*
X3635790D01*
X3628020Y2718790D01*
Y2764360D01*
X3669520D01*
G03X3704540Y2799380I0J35020D01*
G01Y2921300D01*
G03X3686700Y2951820I-35026J0D01*
G02Y2969520I4983J8850D01*
G03X3704540Y3000040I-17186J30520D01*
G01Y3121960D01*
G03X3669520Y3156980I-35020J0D01*
G01X3630520D01*
Y3344120D01*
X3607990Y3366650D01*
X3609670Y3371380D01*
X3610170Y3372030D01*
G03X3617520Y3393490I-27670J21466D01*
G01Y3538510D01*
G03X3597430Y3570180I-35019J-7D01*
G01X3594520Y3571550D01*
Y3711830D01*
X3520830Y3785520D01*
X3363520D01*
Y3800500D01*
G03X3328500Y3835520I-35020J0D01*
G01X3233500D01*
G03X3198480Y3800500I0J-35020D01*
G01Y3655500D01*
G03X3233500Y3620480I35020J0D01*
G01X3328500D01*
G03X3363520Y3655500I0J35020D01*
G01Y3670480D01*
X3473170D01*
X3479480Y3664170D01*
Y3599540D01*
X3477480Y3597540D01*
Y3572240D01*
X3474310Y3570950D01*
G03X3452480Y3538520I13191J-32442D01*
G01Y3393480D01*
G03X3474310Y3361050I35021J12D01*
G01X3477480Y3359760D01*
Y3334460D01*
X3515480Y3296460D01*
Y3156980D01*
X3476480D01*
G03X3441490Y3123390I0J-35019D01*
G01X3441290Y3118520D01*
X3417450D01*
X3307450Y3008520D01*
X3129020D01*
Y3014500D01*
G03X3094000Y3049520I-35020J0D01*
G01X3000640D01*
X2999080Y3059210D01*
X3002860Y3060720D01*
G03X3024880Y3093240I-13003J32520D01*
G01Y3220240D01*
G03X2989860Y3255260I-35020J0D01*
G01X2898420D01*
G03X2872150Y3243390I6J-35017D01*
G02X2857340Y3242930I-7621J6721D01*
G01X2852130Y3248140D01*
X2833940D01*
Y3257430D01*
X2838070Y3258210D01*
G03X2887630Y3358310I-13070J68790D01*
G01X2886390Y3360790D01*
X2889330Y3365750D01*
X2890440Y3366410D01*
G03X2907520Y3396480I-17943J30077D01*
G01Y3541510D01*
G03X2883500Y3574750I-35019J-7D01*
G01X2880020Y3575900D01*
Y3630210D01*
X2922790Y3672980D01*
X2998480D01*
Y3655500D01*
G03X3033500Y3620480I35020J0D01*
G01X3128500D01*
G03X3163520Y3655500I0J35020D01*
G01Y3800500D01*
G03X3128500Y3835520I-35020J0D01*
G01X3033500D01*
G03X2998480Y3800500I0J-35020D01*
G01Y3783020D01*
X2877210D01*
X2769980Y3675790D01*
Y3575900D01*
X2766500Y3574750D01*
G03X2742480Y3541510I10999J-33247D01*
G01Y3535020D01*
X2688520D01*
Y3552500D01*
G03X2653500Y3587520I-35020J0D01*
G01X2558500D01*
G03X2523480Y3552500I0J-35020D01*
G01Y3407500D01*
G03X2558500Y3372480I35020J0D01*
G01X2653500D01*
G03X2688520Y3407500I0J35020D01*
G01Y3424980D01*
X2711010D01*
X2722010Y3413980D01*
X2742480D01*
Y3396480D01*
G03X2759560Y3366410I35023J7D01*
G01X2760670Y3365750D01*
X2763610Y3360790D01*
X2762370Y3358310D01*
G03X2788900Y3267000I62630J-31312D01*
G02X2783660Y3248140I-5243J-8701D01*
G01X2322670D01*
X2211790Y3359020D01*
X2074310D01*
G03X1987690I-43310J-55020D01*
G01X1986090D01*
X1980510Y3364600D01*
X1873580D01*
G02X1865300Y3380650I-2J10160D01*
G03X1865780Y3461190I-57040J40611D01*
G01Y3505400D01*
X1871760D01*
G03X1906780Y3540420I0J35020D01*
G01Y3631860D01*
G03X1871760Y3666880I-35020J0D01*
G01X1865780D01*
Y3690890D01*
X1794320Y3762350D01*
X1684700D01*
X1677060Y3754700D01*
G02X1661470Y3756180I-7183J7187D01*
G03X1632590Y3771520I-28966J-19678D01*
G02X1627520Y3776600I11J5081D01*
G01Y3794830D01*
X1548830Y3873520D01*
X928170D01*
X849480Y3794830D01*
Y3770240D01*
X846310Y3768950D01*
G03X824480Y3736520I13191J-32442D01*
G01Y3591480D01*
G03X846310Y3559050I35021J12D01*
G01X849480Y3557760D01*
Y3376650D01*
X810480Y3337650D01*
Y3313640D01*
X771480D01*
G03X736460Y3278620I0J-35020D01*
G01Y3258520D01*
X350170D01*
X271480Y3179830D01*
Y3137580D01*
X266670Y3132570D01*
X264780Y3132390D01*
G03X233020Y3097520I3262J-34870D01*
G01Y2904480D01*
G03X264780Y2869610I35022J0D01*
G01X266670Y2869430D01*
X271480Y2864420D01*
Y2575980D01*
X200600D01*
G03X165580Y2540960I0J-35020D01*
G01Y2347920D01*
G03X200600Y2312900I35020J0D01*
G01X505400D01*
G03X540420Y2347920I0J35020D01*
G01Y2540960D01*
G03X505400Y2575980I-35020J0D01*
G01X410520D01*
Y2599990D01*
X386520Y2623990D01*
Y2869460D01*
X474640D01*
Y2682870D01*
X551530Y2605980D01*
X593210D01*
X600980Y2598210D01*
Y1669790D01*
X593210Y1662020D01*
X564210D01*
X491980Y1589790D01*
Y1547520D01*
X457500D01*
G03X422480Y1512500I0J-35020D01*
G01Y1417500D01*
G03X457500Y1382480I35020J0D01*
G01X602500D01*
G03X637520Y1417500I0J35020D01*
G01Y1512520D01*
G03X629150Y1535230I-35019J-9D01*
G02X636880Y1551980I7730J6591D01*
G01X638790D01*
X711020Y1624210D01*
Y2643790D01*
X638790Y2716020D01*
X597110D01*
X584680Y2728450D01*
Y2869460D01*
X590620D01*
G03X625640Y2904480I0J35020D01*
G01Y3097520D01*
G03X590620Y3132540I-35020J0D01*
G01X399150D01*
G02X395560Y3141210I4J5080D01*
G01X397830Y3143480D01*
X738900D01*
X740320Y3140720D01*
G03X754300Y3126180I31165J15974D01*
G02Y3108480I-4983J-8850D01*
G03X736460Y3077960I17186J-30520D01*
G01Y2956040D01*
G03X771480Y2921020I35020J0D01*
G01X812980D01*
Y2679640D01*
X788480D01*
G03X753460Y2644620I0J-35020D01*
G01Y2522700D01*
G03X771300Y2492180I35026J0D01*
G02Y2474480I-4983J-8850D01*
G03X753460Y2443960I17186J-30520D01*
G01Y2322040D01*
G03X788480Y2287020I35020J0D01*
G01X829980D01*
Y2258320D01*
X828970Y2256960D01*
G03X829980Y2171690I56034J-41977D01*
G01Y1854990D01*
X812980Y1837990D01*
Y1817520D01*
X795500D01*
G03X760480Y1782500I0J-35020D01*
G01Y1687500D01*
G03X795500Y1652480I35020J0D01*
G01X940500D01*
G03X975520Y1687500I0J35020D01*
G01Y1782500D01*
G03X944520Y1817290I-35022J0D01*
G01X940020Y1817810D01*
Y2171690D01*
G03X941030Y2256960I-55024J43293D01*
G01X940020Y2258320D01*
Y2287020D01*
X981520D01*
G03X1016540Y2322040I0J35020D01*
G01Y2443960D01*
G03X998700Y2474480I-35026J0D01*
G02Y2492180I4983J8850D01*
G03X1016540Y2522700I-17186J30520D01*
G01Y2644620D01*
G03X981520Y2679640I-35020J0D01*
G01X940020D01*
Y2700110D01*
X923020Y2717110D01*
Y2921020D01*
X964520D01*
G03X999540Y2956040I0J35020D01*
G01Y3077960D01*
G03X981700Y3108480I-35026J0D01*
G02Y3126180I4983J8850D01*
G03X999540Y3156700I-17186J30520D01*
G01Y3278620D01*
G03X964520Y3313640I-35020J0D01*
G01X961430D01*
G02X957840Y3322310I4J5080D01*
G01X964520Y3328990D01*
Y3557760D01*
X967690Y3559050D01*
G03X989520Y3591480I-13191J32442D01*
G01Y3736500D01*
G03X988300Y3745660I-35019J-3D01*
G02X998100Y3758480I9806J2660D01*
G01X1015900D01*
G02X1025700Y3745660I-6J-10160D01*
G03X1024480Y3736500I33799J-9163D01*
G01Y3591490D01*
G03X1048500Y3558250I35019J7D01*
G01X1051980Y3557100D01*
Y2802210D01*
X1175700Y2678490D01*
Y2623440D01*
X1172440Y2622190D01*
G03X1149980Y2589500I12560J-32690D01*
G01Y2462500D01*
G03X1185000Y2427480I35020J0D01*
G01X1276440D01*
G03X1311460Y2462500I0J35020D01*
G01Y2589500D01*
G03X1289000Y2622190I-35020J0D01*
G01X1285740Y2623440D01*
Y2724070D01*
X1162020Y2847790D01*
Y3557100D01*
X1165500Y3558250D01*
G03X1189520Y3591490I-10999J33247D01*
G01Y3736500D01*
G03X1188300Y3745660I-35019J-3D01*
G02X1198100Y3758480I9806J2660D01*
G01X1293900D01*
G02X1303700Y3745660I-6J-10160D01*
G03X1302480Y3736500I33799J-9163D01*
G01Y3591490D01*
G03X1326500Y3558250I35019J7D01*
G01X1329980Y3557100D01*
Y3351310D01*
G03X1440020I55020J-43310D01*
G01Y3557100D01*
X1443500Y3558250D01*
G03X1467520Y3591490I-10999J33247D01*
G01Y3736500D01*
G03X1466300Y3745660I-35019J-3D01*
G02X1476100Y3758480I9806J2660D01*
G01X1501170D01*
X1506500Y3753150D01*
X1505190Y3750010D01*
G03X1502480Y3736500I32310J-13508D01*
G01Y3591500D01*
G03X1537500Y3556480I35020J0D01*
G01X1632500D01*
G03X1667520Y3591500I0J35020D01*
G01Y3606480D01*
X1691530D01*
X1692400Y3607350D01*
G02X1709740Y3600170I7181J-7185D01*
G01Y3540420D01*
G03X1744760Y3505400I35020J0D01*
G01X1750740D01*
Y3461190D01*
G03X1751220Y3380650I57520J-39929D01*
G02X1742940Y3364600I-8278J-5890D01*
G01X1557990D01*
X1420120Y3226730D01*
Y3205180D01*
X1416860Y3203930D01*
G03X1394400Y3171240I12560J-32690D01*
G01Y3044240D01*
G03X1429420Y3009220I35020J0D01*
G01X1520860D01*
G03X1555880Y3044240I0J35020D01*
G01Y3052720D01*
X1642020D01*
G03X1712580Y3043640I42978J55280D01*
G02X1726740Y3034300I4000J-9339D01*
G01Y2994420D01*
G03X1756740Y2959760I35022J0D01*
G01Y2568880D01*
X1750760D01*
G03X1715740Y2533860I0J-35020D01*
G01Y2442420D01*
G03X1750760Y2407400I35020J0D01*
G01X1877760D01*
G03X1912780Y2442420I0J35020D01*
G01Y2533860D01*
G03X1877760Y2568880I-35020J0D01*
G01X1871780D01*
Y2924390D01*
X1882780Y2935390D01*
Y2959400D01*
X1888760D01*
G03X1923780Y2994420I0J35020D01*
G01Y3085870D01*
G03X1923750Y3087490I-35023J162D01*
G01X1923740Y3087600D01*
Y3087610D01*
X1923500Y3092670D01*
X1923960Y3092690D01*
X1923270Y3093690D01*
X1923260Y3093710D01*
X1922980Y3094110D01*
X1922540Y3095100D01*
X1922440Y3095460D01*
G03X1888760Y3120880I-33680J-9602D01*
G01X1880770D01*
G02X1871580Y3135380I-2J10161D01*
G03X1738780Y3173960I-63323J29882D01*
G02X1723160Y3166710I-10079J1264D01*
G03X1641690Y3163020I-38159J-58709D01*
G01X1599030D01*
X1598770Y3162760D01*
X1555880D01*
Y3171260D01*
G03X1548330Y3192970I-35023J-12D01*
G01X1545530Y3196520D01*
X1603570Y3254560D01*
X1934930D01*
X1940510Y3248980D01*
X1975980D01*
Y3225020D01*
X1967500D01*
G03X1932480Y3190000I0J-35020D01*
G01Y3098550D01*
G03X1932510Y3096930I35023J-162D01*
G01X1932520Y3096820D01*
Y3096810D01*
X1932760Y3091750D01*
X1932300Y3091730D01*
X1932990Y3090730D01*
X1933000Y3090710D01*
X1933280Y3090310D01*
X1933720Y3089320D01*
X1933820Y3088960D01*
G03X1967500Y3063540I33680J9602D01*
G01X2094500D01*
G03X2129520Y3098560I0J35020D01*
G01Y3190000D01*
G03X2094500Y3225020I-35020J0D01*
G01X2086020D01*
Y3248980D01*
X2166210D01*
X2277090Y3138100D01*
X2460080D01*
G02X2467930Y3121490I1J-10159D01*
G03X2458820Y3046820I54070J-44488D01*
G03X2439480Y3015510I15680J-31314D01*
G01Y2870490D01*
G03X2463500Y2837250I35019J7D01*
G01X2466980Y2836100D01*
Y2488900D01*
X2463500Y2487750D01*
G03X2439480Y2454510I10999J-33247D01*
G01Y2309500D01*
G03X2474500Y2274480I35020J0D01*
G01X2569500D01*
G03X2604520Y2309500I0J35020D01*
G01Y2454510D01*
G03X2580500Y2487750I-35019J-7D01*
G01X2577020Y2488900D01*
Y2836100D01*
X2580500Y2837250D01*
G03X2604520Y2870490I-10999J33247D01*
G01Y2887980D01*
X2758970D01*
X2759490Y2883480D01*
G03X2794280Y2852480I34790J4022D01*
G01X2885720D01*
G03X2920740Y2887500I0J35020D01*
G01Y3014500D01*
G03X2895280Y3048190I-35020J0D01*
G01X2894920Y3048300D01*
X2891210Y3049970D01*
X2890920Y3049320D01*
X2887450Y3049480D01*
G03X2885730Y3049520I-1674J-34981D01*
G01X2794280D01*
G03X2759260Y3014500I0J-35020D01*
G01Y3006020D01*
X2738790D01*
X2730790Y2998020D01*
X2604520D01*
Y3015510D01*
G03X2585180Y3046820I-35020J-4D01*
G03X2576070Y3121490I-63180J30182D01*
G02X2583920Y3138100I7849J6451D01*
G01X2806550D01*
X2842930Y3101720D01*
X2863400D01*
Y3093240D01*
G03X2888860Y3059550I35020J0D01*
G01X2889220Y3059440D01*
X2892930Y3057770D01*
X2893220Y3058420D01*
X2896690Y3058260D01*
G03X2898410Y3058220I1674J34981D01*
G01X2989860D01*
G03X2991710Y3058270I-21J35019D01*
G01X2995590Y3058470D01*
X2998400Y3049960D01*
X2993020Y3048190D01*
X2992910Y3048160D01*
G03X2967540Y3014500I9644J-33660D01*
G01Y2887500D01*
G03X3002560Y2852480I35020J0D01*
G01X3094000D01*
G03X3129020Y2887500I0J35020D01*
G01Y2893480D01*
X3273760D01*
Y2784320D01*
G02X3259750Y2774920I-10160J3D01*
G03X3246520Y2777520I-13241J-32417D01*
G01X3151500D01*
G03X3116480Y2742500I0J-35020D01*
G01Y2597480D01*
G03X3138310Y2565050I35021J12D01*
G01X3141480Y2563760D01*
Y2498930D01*
G03Y2419070I57520J-39930D01*
G01Y2111530D01*
X3115480Y2085530D01*
Y2061520D01*
X3100500D01*
G03X3065480Y2026500I0J-35020D01*
G01Y1931500D01*
G03X3100500Y1896480I35020J0D01*
G01X3245500D01*
G03X3280520Y1931500I0J35020D01*
G01Y2026510D01*
G03X3259560Y2058580I-35019J-3D01*
G01X3256520Y2059910D01*
Y2400760D01*
X3310110D01*
X3388800Y2479450D01*
Y2927170D01*
X3437130Y2975500D01*
G02X3451540Y2975450I7180J-7185D01*
G03X3459300Y2969520I24937J24591D01*
G02Y2951820I-4983J-8850D01*
G03X3441460Y2921300I17186J-30520D01*
G01Y2799380D01*
G03X3476480Y2764360I35020J0D01*
G01X3517980D01*
Y2673210D01*
X3590210Y2600980D01*
X3737210D01*
X3779980Y2558210D01*
Y1394020D01*
X3657810D01*
G03X3625510Y1415520I-32305J-13520D01*
G01X3480500D01*
G03X3445480Y1380500I0J-35020D01*
G01Y1285500D01*
G03X3480500Y1250480I35020J0D01*
G01X3625510D01*
G03X3658750Y1274500I-7J35019D01*
G01X3659900Y1277980D01*
X3681000D01*
X3687000Y1283980D01*
X3828790D01*
X3882650Y1337840D01*
G02X3899990Y1330650I7180J-7188D01*
G01Y100010D01*
X100010D01*
G37*
%LPC*%
G75*
G36*
G01X3390880Y1524040D02*
Y1717080D01*
G02X3423600Y1749800I32720J0D01*
G01X3728400D01*
G02X3761120Y1717080I0J-32720D01*
G01Y1524040D01*
G02X3728400Y1491320I-32720J0D01*
G01X3423600D01*
G02X3390880Y1524040I0J32720D01*
G37*
G36*
G01X3447780Y688500D02*
Y783500D01*
G02X3480500Y816220I32720J0D01*
G01X3625500D01*
G02X3658220Y783500I0J-32720D01*
G01Y688500D01*
G02X3625500Y655780I-32720J0D01*
G01X3480500D01*
G02X3447780Y688500I0J32720D01*
G37*
G36*
G01X1479780Y315500D02*
Y460500D01*
G02X1512500Y493220I32720J0D01*
G01X1607500D01*
G02X1640220Y460500I0J-32720D01*
G01Y315500D01*
G02X1607500Y282780I-32720J0D01*
G01X1512500D01*
G02X1479780Y315500I0J32720D01*
G37*
G36*
G01X2266500Y283480D02*
X2171500D01*
G02X2136480Y318500I0J35020D01*
G01Y463500D01*
G02X2160500Y496750I35019J3D01*
G01X2163980Y497900D01*
Y519000D01*
X2164980Y520000D01*
Y687210D01*
X2041980Y810210D01*
Y854560D01*
X2038720Y855810D01*
G02X2016260Y888500I12560J32690D01*
G01Y896980D01*
X1778210D01*
X1705980Y969210D01*
Y1156100D01*
X1702500Y1157250D01*
G02X1678480Y1190500I10999J33247D01*
G01Y1335500D01*
G02X1713500Y1370520I35020J0D01*
G01X1808500D01*
G02X1843520Y1335500I0J-35020D01*
G01Y1190500D01*
G02X1819500Y1157250I-35019J-3D01*
G01X1816020Y1156100D01*
Y1014790D01*
X1823790Y1007020D01*
X2016260D01*
Y1015500D01*
G02X2051280Y1050520I35020J0D01*
G01X2142720D01*
G02X2144640Y1050470I49J-35021D01*
G03X2146260Y1050640I287J5071D01*
G02X2150410Y1049970I1338J-4901D01*
G03X2151890Y1049300I2808J4232D01*
G02X2177740Y1015500I-9172J-33800D01*
G01Y888500D01*
G02X2163730Y860480I-35025J0D01*
G03X2162640Y845170I6095J-8128D01*
G01X2275020Y732790D01*
Y497660D01*
X2278380Y496450D01*
G02X2301520Y463500I-11881J-32944D01*
G01Y318500D01*
G02X2266500Y283480I-35020J0D01*
G37*
G36*
G01X1317760Y696400D02*
X1190760D01*
G02X1155740Y731420I0J35020D01*
G01Y822860D01*
G02X1182150Y856800I35013J0D01*
G01X1185980Y857780D01*
Y1245480D01*
X1168500D01*
G02X1135250Y1269500I-3J35019D01*
G01X1134100Y1272980D01*
X1103310D01*
G02Y1383020I-43310J55020D01*
G01X1134100D01*
X1135250Y1386500D01*
G02X1168500Y1410520I33247J-10999D01*
G01X1313500D01*
G02X1346750Y1386500I3J-35019D01*
G01X1347900Y1383020D01*
X1438590D01*
X1468530Y1353080D01*
G03X1484210Y1354700I7181J7187D01*
G02X1513500Y1370520I29290J-19205D01*
G01X1608500D01*
G02X1643520Y1335500I0J-35020D01*
G01Y1190500D01*
G02X1608500Y1155480I-35020J0D01*
G01X1513500D01*
G02X1478480Y1190500I0J35020D01*
G01Y1207980D01*
X1458010D01*
X1393010Y1272980D01*
X1347900D01*
X1346750Y1269500D01*
G02X1313500Y1245480I-33247J10999D01*
G01X1296020D01*
Y891610D01*
X1309280Y878350D01*
Y857880D01*
X1317760D01*
G02X1351560Y832030I0J-35022D01*
G03X1352230Y830550I4902J1328D01*
G02X1352900Y826400I-4231J-2812D01*
G03X1352730Y824780I4901J-1333D01*
G02X1352780Y822860I-34971J-1871D01*
G01Y731420D01*
G02X1317760Y696400I-35020J0D01*
G37*
G36*
G01X1523500Y800540D02*
X1396500D01*
G02X1362700Y826390I0J35022D01*
G03X1362030Y827870I-4902J-1328D01*
G02X1361360Y832020I4231J2812D01*
G03X1361530Y833640I-4901J1333D01*
G02X1361480Y835560I34971J1871D01*
G01Y927000D01*
G02X1396500Y962020I35020J0D01*
G01X1523500D01*
G02X1558520Y927000I0J-35020D01*
G01Y835560D01*
G02X1523500Y800540I-35020J0D01*
G37*
G36*
G01X2153500Y1059270D02*
G03X2151880Y1059100I-287J-5071D01*
G02X2147730Y1059770I-1338J4901D01*
G03X2146250Y1060440I-2808J-4232D01*
G02X2120400Y1094240I9172J33800D01*
G01Y1221240D01*
G02X2142860Y1253930I35020J0D01*
G01X2146120Y1255180D01*
Y1366070D01*
X2110210Y1401980D01*
X1553210D01*
X1393840Y1561350D01*
Y1696820D01*
X1390580Y1698070D01*
G02X1368120Y1730760I12560J32690D01*
G01Y1857760D01*
G02X1393970Y1891560I35022J0D01*
G03X1395450Y1892230I-1328J4902D01*
G02X1399600Y1892900I2812J-4231D01*
G03X1401220Y1892730I1333J4901D01*
G02X1403140Y1892780I1871J-34971D01*
G01X1494580D01*
G02X1496500Y1892730I49J-35021D01*
G03X1498120Y1892900I287J5071D01*
G02X1502270Y1892230I1338J-4901D01*
G03X1503750Y1891560I2808J4232D01*
G02X1529600Y1857760I-9172J-33800D01*
G01Y1849280D01*
X1641690D01*
G02X1718900Y1855530I43312J-55019D01*
G03X1733980Y1864420I4921J8887D01*
G01Y1945210D01*
X1726210Y1952980D01*
X1633740D01*
Y1936500D01*
G02X1598720Y1901480I-35020J0D01*
G01X1507280D01*
G02X1505360Y1901530I-49J35021D01*
G03X1503740Y1901360I-287J-5071D01*
G02X1499590Y1902030I-1338J4901D01*
G03X1498110Y1902700I-2808J-4232D01*
G02X1472260Y1936500I9172J33800D01*
G01Y2063500D01*
G02X1507280Y2098520I35020J0D01*
G01X1598720D01*
G02X1633510Y2067520I0J-35022D01*
G01X1634030Y2063020D01*
X1771790D01*
X1844020Y1990790D01*
Y1886790D01*
X1851790Y1879020D01*
X1895980D01*
Y1924000D01*
G02X1931000Y1959020I35020J0D01*
G01X2061000D01*
G02X2096020Y1924000I0J-35020D01*
G01Y1724000D01*
G02X2061000Y1688980I-35020J0D01*
G01X1931000D01*
G02X1895980Y1724000I0J35020D01*
G01Y1768980D01*
X1806210D01*
X1772350Y1802840D01*
G03X1755010Y1795480I-7182J-7186D01*
G02X1641690Y1739240I-70010J-1221D01*
G01X1529600D01*
Y1730760D01*
G02X1507140Y1698070I-35020J0D01*
G01X1503880Y1696820D01*
Y1606930D01*
X1598790Y1512020D01*
X2155790D01*
X2256160Y1411650D01*
Y1255180D01*
X2259420Y1253930D01*
G02X2281880Y1221240I-12560J-32690D01*
G01Y1094240D01*
G02X2246860Y1059220I-35020J0D01*
G01X2155420D01*
G02X2153500Y1059270I-49J35021D01*
G37*
G36*
G01X1313500Y1445480D02*
X1168500D01*
G02X1133480Y1480500I0J35020D01*
G01Y1575500D01*
G02X1149300Y1604790I35025J0D01*
G03X1150920Y1620470I-5567J8499D01*
G01X1132980Y1638410D01*
Y2292050D01*
X1216210Y2375280D01*
X1254120D01*
Y2383760D01*
G02X1279970Y2417560I35022J0D01*
G03X1281450Y2418230I-1328J4902D01*
G02X1285600Y2418900I2812J-4231D01*
G03X1287220Y2418730I1333J4901D01*
G02X1289140Y2418780I1871J-34971D01*
G01X1380580D01*
G02X1382500Y2418730I49J-35021D01*
G03X1384120Y2418900I287J5071D01*
G02X1388270Y2418230I1338J-4901D01*
G03X1389750Y2417560I2808J4232D01*
G02X1415600Y2383760I-9172J-33800D01*
G01Y2256760D01*
G02X1380580Y2221740I-35020J0D01*
G01X1371390D01*
Y2212930D01*
X1374950Y2211810D01*
G02X1410030Y2103010I-20951J-66811D01*
G01X1409020Y2101660D01*
Y2093180D01*
G02X1425460Y2063500I-18571J-29680D01*
G01Y1936500D01*
G02X1399610Y1902700I-35022J0D01*
G03X1398130Y1902030I1328J-4902D01*
G02X1393980Y1901360I-2812J4231D01*
G03X1392360Y1901530I-1333J-4901D01*
G02X1390440Y1901480I-1871J34971D01*
G01X1299000D01*
G02X1263980Y1936500I0J35020D01*
G01Y2063500D01*
G02X1287290Y2096510I35028J0D01*
G03X1292780Y2111010I-3392J9574D01*
G02X1314990Y2203140I61219J33984D01*
G03X1309330Y2221740I-5661J8439D01*
G01X1289140D01*
G02X1255260Y2247900I0J35019D01*
G01X1254910Y2249230D01*
X1250350Y2253800D01*
X1243020Y2246470D01*
Y1683990D01*
X1296020Y1630990D01*
Y1610520D01*
X1313500D01*
G02X1348520Y1575500I0J-35020D01*
G01Y1480500D01*
G02X1313500Y1445480I-35020J0D01*
G37*
G36*
G01X2369500Y2274480D02*
X2274500D01*
G02X2239480Y2309500I0J35020D01*
G01Y2326980D01*
X2219010D01*
X2217010Y2328980D01*
X2117440D01*
X2116190Y2325720D01*
G02X2083500Y2303260I-32690J12560D01*
G01X1956500D01*
G02X1921480Y2338280I0J35020D01*
G01Y2429720D01*
G02X1921530Y2431640I35021J49D01*
G03X1921360Y2433260I-5071J287D01*
G02X1922030Y2437410I4901J1338D01*
G03X1922700Y2438890I-4232J2808D01*
G02X1956500Y2464740I33800J-9172D01*
G01X2083500D01*
G02X2116190Y2442280I0J-35020D01*
G01X2117440Y2439020D01*
X2239480D01*
Y2454500D01*
G02X2274500Y2489520I35020J0D01*
G01X2369500D01*
G02X2404520Y2454500I0J-35020D01*
G01Y2309500D01*
G02X2369500Y2274480I-35020J0D01*
G37*
G36*
G01X1391360Y2427530D02*
G03X1389740Y2427360I-287J-5071D01*
G02X1385590Y2428030I-1338J4901D01*
G03X1384110Y2428700I-2808J-4232D01*
G02X1358260Y2462500I9172J33800D01*
G01Y2589500D01*
G02X1371590Y2617000I35031J0D01*
G03X1372480Y2632160I-6291J7975D01*
G01X1315980Y2688660D01*
Y2804560D01*
X1312720Y2805810D01*
G02X1290260Y2838500I12560J32690D01*
G01Y2965500D01*
G02X1325280Y3000520I35020J0D01*
G01X1416720D01*
G02X1418640Y3000470I49J-35021D01*
G03X1420260Y3000640I287J5071D01*
G02X1424410Y2999970I1338J-4901D01*
G03X1425890Y2999300I2808J4232D01*
G02X1451740Y2965500I-9172J-33800D01*
G01Y2838500D01*
G02X1429280Y2805810I-35020J0D01*
G01X1426020Y2804560D01*
Y2734240D01*
X1494020Y2666240D01*
Y2623440D01*
X1497280Y2622190D01*
G02X1515090Y2606940I-12558J-32691D01*
G03X1522100Y2605110I4405J2533D01*
G02X1533460Y2479420I35902J-60113D01*
G03X1519740Y2469910I-3561J-9515D01*
G01Y2462500D01*
G02X1484720Y2427480I-35020J0D01*
G01X1393280D01*
G02X1391360Y2427530I-49J35021D01*
G37*
G36*
G01X2083500Y2511540D02*
X1956500D01*
G02X1922700Y2537390I0J35022D01*
G03X1922030Y2538870I-4902J-1328D01*
G02X1921360Y2543020I4231J2812D01*
G03X1921530Y2544640I-4901J1333D01*
G02X1921480Y2546560I34971J1871D01*
G01Y2638000D01*
G02X1956500Y2673020I35020J0D01*
G01X2083500D01*
G02X2115940Y2651190I0J-35018D01*
G01X2117230Y2648020D01*
X2159690D01*
G02X2160620Y2537260I43309J-55020D01*
G01X2117440D01*
X2116190Y2534000D01*
G02X2083500Y2511540I-32690J12560D01*
G37*
G36*
G01X1635310Y2790270D02*
G02X1523250I-56030J-41990D01*
G01X1524260Y2791620D01*
Y2804560D01*
X1521000Y2805810D01*
G02X1498540Y2838500I12560J32690D01*
G01Y2965500D01*
G02X1524390Y2999300I35022J0D01*
G03X1525870Y2999970I-1328J4902D01*
G02X1530020Y3000640I2812J-4231D01*
G03X1531640Y3000470I1333J4901D01*
G02X1533560Y3000520I1871J-34971D01*
G01X1625000D01*
G02X1660020Y2965500I0J-35020D01*
G01Y2838500D01*
G02X1637560Y2805810I-35020J0D01*
G01X1634300Y2804560D01*
Y2791620D01*
X1635310Y2790270D01*
G37*
G36*
G01X2369500Y2835480D02*
X2274500D01*
G02X2239480Y2870500I0J35020D01*
G01Y2880980D01*
X2128440D01*
X2127190Y2877720D01*
G02X2094500Y2855260I-32690J12560D01*
G01X1967500D01*
G02X1932480Y2890280I0J35020D01*
G01Y2981720D01*
G02X1932530Y2983640I35021J49D01*
G03X1932360Y2985260I-5071J287D01*
G02X1933030Y2989410I4901J1338D01*
G03X1933700Y2990890I-4232J2808D01*
G02X1967500Y3016740I33800J-9172D01*
G01X2094500D01*
G02X2127190Y2994280I0J-35020D01*
G01X2128440Y2991020D01*
X2212010D01*
X2219010Y2998020D01*
X2239480D01*
Y3015500D01*
G02X2274500Y3050520I35020J0D01*
G01X2369500D01*
G02X2404520Y3015500I0J-35020D01*
G01Y2870500D01*
G02X2369500Y2835480I-35020J0D01*
G37*
G36*
G01X2453500Y3372480D02*
X2358500D01*
G02X2323480Y3407500I0J35020D01*
G01Y3424980D01*
X2110810D01*
X2109470Y3421980D01*
G02X2077500Y3401260I-31970J14304D01*
G01X1950500D01*
G02X1915480Y3436280I0J35020D01*
G01Y3527720D01*
G02X1915530Y3529640I35021J49D01*
G03X1915360Y3531260I-5071J287D01*
G02X1916030Y3535410I4901J1338D01*
G03X1916700Y3536890I-4232J2808D01*
G02X1950500Y3562740I33800J-9172D01*
G01X2077500D01*
G02X2110190Y3540280I0J-35020D01*
G01X2111440Y3537020D01*
X2132990D01*
X2134990Y3535020D01*
X2150750D01*
G03X2157370Y3552890I4J10160D01*
G02X2133690Y3596070I45632J53108D01*
G01X2133450Y3597740D01*
X2113900Y3617290D01*
G03X2100150Y3617850I-7179J-7188D01*
G02X2077500Y3609540I-22650J26713D01*
G01X1950500D01*
G02X1916700Y3635390I0J35022D01*
G03X1916030Y3636870I-4902J-1328D01*
G02X1915360Y3641020I4231J2812D01*
G03X1915530Y3642640I-4901J1333D01*
G02X1915480Y3644560I34971J1871D01*
G01Y3736000D01*
G02X1950500Y3771020I35020J0D01*
G01X2077500D01*
G02X2110190Y3748560I0J-35020D01*
G01X2111440Y3745300D01*
X2141510D01*
X2211260Y3675550D01*
X2212930Y3675310D01*
G02X2248630Y3552890I-9931J-69311D01*
G03X2255250Y3535020I6616J-7710D01*
G01X2323480D01*
Y3552500D01*
G02X2358500Y3587520I35020J0D01*
G01X2453500D01*
G02X2488520Y3552500I0J-35020D01*
G01Y3407500D01*
G02X2453500Y3372480I-35020J0D01*
G37*
G36*
G01X1842520Y315500D02*
G02X1807500Y280480I-35020J0D01*
G01X1712500D01*
G02X1677480Y315500I0J35020D01*
G01Y460500D01*
G02X1712500Y495520I35020J0D01*
G01X1807500D01*
G02X1842520Y460500I0J-35020D01*
G01Y446020D01*
X1936480D01*
Y463500D01*
G02X1971500Y498520I35020J0D01*
G01X2066500D01*
G02X2101520Y463500I0J-35020D01*
G01Y318500D01*
G02X2066500Y283480I-35020J0D01*
G01X1971500D01*
G02X1936480Y318500I0J35020D01*
G01Y335980D01*
X1865990D01*
X1862990Y332980D01*
X1842520D01*
Y315500D01*
G37*
G36*
G01X2875020Y936000D02*
X2876020Y935000D01*
Y913900D01*
X2879500Y912750D01*
G02X2903520Y879500I-10999J-33247D01*
G01Y734500D01*
G02X2868500Y699480I-35020J0D01*
G01X2773500D01*
G02X2738480Y734500I0J35020D01*
G01Y879500D01*
G02X2761620Y912450I35021J6D01*
G01X2764980Y913660D01*
Y1010480D01*
X2747500D01*
G02X2712480Y1045500I0J35020D01*
G01Y1140500D01*
G02X2747500Y1175520I35020J0D01*
G01X2892500D01*
G02X2927520Y1140500I0J-35020D01*
G01Y1045500D01*
G02X2892500Y1010480I-35020J0D01*
G01X2875020D01*
Y936000D01*
G37*
G36*
G01X3660520Y888500D02*
G02X3625500Y853480I-35020J0D01*
G01X3480500D01*
G02X3445480Y888500I0J35020D01*
G01Y983500D01*
G02X3480500Y1018520I35020J0D01*
G01X3497980D01*
Y1050480D01*
X3480500D01*
G02X3445480Y1085500I0J35020D01*
G01Y1180500D01*
G02X3480500Y1215520I35020J0D01*
G01X3625500D01*
G02X3660520Y1180500I0J-35020D01*
G01Y1085500D01*
G02X3625500Y1050480I-35020J0D01*
G01X3608020D01*
Y1018520D01*
X3625500D01*
G02X3660520Y983500I0J-35020D01*
G01Y888500D01*
G37*
G36*
G01X3293520Y940500D02*
G02X3258500Y905480I-35020J0D01*
G01X3113500D01*
G02X3078480Y940500I0J35020D01*
G01Y1035500D01*
G02X3113500Y1070520I35020J0D01*
G01X3130980D01*
Y1186010D01*
X3125980Y1191010D01*
Y1211480D01*
X3108500D01*
G02X3073480Y1246500I0J35020D01*
G01Y1341500D01*
G02X3108500Y1376520I35020J0D01*
G01X3253500D01*
G02X3288520Y1341500I0J-35020D01*
G01Y1246500D01*
G02X3253500Y1211480I-35020J0D01*
G01X3241020D01*
Y1070520D01*
X3258500D01*
G02X3293520Y1035500I0J-35020D01*
G01Y940500D01*
G37*
G36*
G01X923020Y1452480D02*
Y1129360D01*
X925870Y1127970D01*
G02X945520Y1096500I-15375J-31470D01*
G01Y1001500D01*
G02X910500Y966480I-35020J0D01*
G01X765500D01*
G02X730480Y1001500I0J35020D01*
G01Y1096500D01*
G02X765500Y1131520I35020J0D01*
G01X782980D01*
Y1151990D01*
X812980Y1181990D01*
Y1452480D01*
X795500D01*
G02X760480Y1487500I0J35020D01*
G01Y1582500D01*
G02X795500Y1617520I35020J0D01*
G01X940500D01*
G02X975520Y1582500I0J-35020D01*
G01Y1487500D01*
G02X940500Y1452480I-35020J0D01*
G01X923020D01*
G37*
G36*
G01X2927520Y1245500D02*
G02X2892500Y1210480I-35020J0D01*
G01X2747500D01*
G02X2712480Y1245500I0J35020D01*
G01Y1340500D01*
G02X2747500Y1375520I35020J0D01*
G01X2764980D01*
Y1646210D01*
X2757210Y1653980D01*
X2661020D01*
Y1644000D01*
G02X2626000Y1608980I-35020J0D01*
G01X2496000D01*
G02X2460980Y1644000I0J35020D01*
G01Y1774000D01*
G02X2496000Y1809020I35020J0D01*
G01X2626000D01*
G02X2661020Y1774000I0J-35020D01*
G01Y1764020D01*
X2802790D01*
X2875020Y1691790D01*
Y1375520D01*
X2892500D01*
G02X2927520Y1340500I0J-35020D01*
G01Y1245500D01*
G37*
G36*
G01X3288520Y1446500D02*
G02X3253500Y1411480I-35020J0D01*
G01X3108500D01*
G02X3073480Y1446500I0J35020D01*
G01Y1541500D01*
G02X3108500Y1576520I35020J0D01*
G01X3125980D01*
Y1668010D01*
X3117980Y1676010D01*
Y1696480D01*
X3100500D01*
G02X3065480Y1731500I0J35020D01*
G01Y1826500D01*
G02X3100500Y1861520I35020J0D01*
G01X3245500D01*
G02X3280520Y1826500I0J-35020D01*
G01Y1731500D01*
G02X3245500Y1696480I-35020J0D01*
G01X3236020D01*
Y1576520D01*
X3253500D01*
G02X3288520Y1541500I0J-35020D01*
G01Y1446500D01*
G37*
G36*
G01X2661020Y1874000D02*
G02X2626000Y1838980I-35020J0D01*
G01X2496000D01*
G02X2460980Y1874000I0J35020D01*
G01Y2004000D01*
G02X2496000Y2039020I35020J0D01*
G01X2626000D01*
G02X2661020Y2004000I0J-35020D01*
G01Y1994020D01*
X2911210D01*
X2918980Y2001790D01*
Y2077480D01*
X2901500D01*
G02X2866480Y2112500I0J35020D01*
G01Y2207500D01*
G02X2901500Y2242520I35020J0D01*
G01X3046500D01*
G02X3081520Y2207500I0J-35020D01*
G01Y2112500D01*
G02X3046500Y2077480I-35020J0D01*
G01X3029020D01*
Y1956210D01*
X2956790Y1883980D01*
X2661020D01*
Y1874000D01*
G37*
G36*
G01X3763420Y2123480D02*
G02X3728400Y2088460I-35020J0D01*
G01X3423600D01*
G02X3388580Y2123480I0J35020D01*
G01Y2316520D01*
G02X3423600Y2351540I35020J0D01*
G01X3518480D01*
Y2375550D01*
X3524480Y2381550D01*
Y2419070D01*
G02X3639520I57520J39930D01*
G01Y2351540D01*
X3728400D01*
G02X3763420Y2316520I0J-35020D01*
G01Y2123480D01*
G37*
G36*
G01X3054020Y2563100D02*
Y2441900D01*
X3057500Y2440750D01*
G02X3081520Y2407500I-11003J-33250D01*
G01Y2312500D01*
G02X3046500Y2277480I-35020J0D01*
G01X2901500D01*
G02X2866480Y2312500I0J35020D01*
G01Y2407500D01*
G02X2901500Y2442520I35020J0D01*
G01X2918980D01*
Y2462990D01*
X2943980Y2487990D01*
Y2563100D01*
X2940500Y2564250D01*
G02X2916480Y2597500I10999J33247D01*
G01Y2742500D01*
G02X2951500Y2777520I35020J0D01*
G01X3046500D01*
G02X3081520Y2742500I0J-35020D01*
G01Y2597500D01*
G02X3057500Y2564250I-35019J-3D01*
G01X3054020Y2563100D01*
G37*
G36*
G01X3417520Y3393500D02*
G02X3382500Y3358480I-35020J0D01*
G01X3287500D01*
G02X3252480Y3393500I0J35020D01*
G01Y3410980D01*
X3107520D01*
Y3396500D01*
G02X3072500Y3361480I-35020J0D01*
G01X2977500D01*
G02X2942480Y3396500I0J35020D01*
G01Y3541500D01*
G02X2977500Y3576520I35020J0D01*
G01X3072500D01*
G02X3107520Y3541500I0J-35020D01*
G01Y3524020D01*
X3127990D01*
X3130990Y3521020D01*
X3252480D01*
Y3538500D01*
G02X3287500Y3573520I35020J0D01*
G01X3382500D01*
G02X3417520Y3538500I0J-35020D01*
G01Y3393500D01*
G37*
G36*
G01X242780Y778500D02*
Y923500D01*
G02X275500Y956220I32720J0D01*
G01X370500D01*
G02X403220Y923500I0J-32720D01*
G01Y778500D01*
G02X370500Y745780I-32720J0D01*
G01X275500D01*
G02X242780Y778500I0J32720D01*
G37*
G36*
G01X732780Y801500D02*
Y896500D01*
G02X765500Y929220I32720J0D01*
G01X910500D01*
G02X943220Y896500I0J-32720D01*
G01Y801500D01*
G02X910500Y768780I-32720J0D01*
G01X765500D01*
G02X732780Y801500I0J32720D01*
G37*
G36*
G01X1363780Y627280D02*
Y718720D01*
G02X1396500Y751440I32720J0D01*
G01X1523500D01*
G02X1556220Y718720I0J-32720D01*
G01Y627280D01*
G02X1523500Y594560I-32720J0D01*
G01X1396500D01*
G02X1363780Y627280I0J32720D01*
G37*
G36*
G01X2540780Y734500D02*
Y879500D01*
G02X2573500Y912220I32720J0D01*
G01X2668500D01*
G02X2701220Y879500I0J-32720D01*
G01Y734500D01*
G02X2668500Y701780I-32720J0D01*
G01X2573500D01*
G02X2540780Y734500I0J32720D01*
G37*
G36*
G01X602500Y1182480D02*
X585020D01*
Y955370D01*
G02X605520Y923500I-14523J-31870D01*
G01Y778500D01*
G02X570500Y743480I-35020J0D01*
G01X475500D01*
G02X440480Y778500I0J35020D01*
G01Y923500D01*
G02X464500Y956750I35023J0D01*
G01X467980Y957900D01*
Y979000D01*
X474980Y986000D01*
Y1182480D01*
X457500D01*
G02X422480Y1217500I0J35020D01*
G01Y1312500D01*
G02X457500Y1347520I35020J0D01*
G01X602500D01*
G02X637520Y1312500I0J-35020D01*
G01Y1217500D01*
G02X602500Y1182480I-35020J0D01*
G37*
G36*
G01X3080780Y740500D02*
Y835500D01*
G02X3113500Y868220I32720J0D01*
G01X3258500D01*
G02X3291220Y835500I0J-32720D01*
G01Y740500D01*
G02X3258500Y707780I-32720J0D01*
G01X3113500D01*
G02X3080780Y740500I0J32720D01*
G37*
G36*
G01X2226840Y888500D02*
Y1015500D01*
G02X2259560Y1048220I32720J0D01*
G01X2351000D01*
G02X2383720Y1015500I0J-32720D01*
G01Y888500D01*
G02X2351000Y855780I-32720J0D01*
G01X2259560D01*
G02X2226840Y888500I0J32720D01*
G37*
G36*
G01X167880Y1748480D02*
Y1941520D01*
G02X200600Y1974240I32720J0D01*
G01X505400D01*
G02X538120Y1941520I0J-32720D01*
G01Y1748480D01*
G02X505400Y1715760I-32720J0D01*
G01X200600D01*
G02X167880Y1748480I0J32720D01*
G37*
G54D24*
X3500000Y500000D03*
X500000Y3500000D03*
%LPD*%
G75*
G54D10*
X530000Y1465000D03*
Y1265000D03*
X868000Y1535000D03*
X838000Y1049000D03*
Y849000D03*
X868000Y1735000D03*
X1241000Y1528000D03*
Y1328000D03*
X3186000Y788000D03*
X2820000Y1293000D03*
Y1093000D03*
X3181000Y1494000D03*
Y1294000D03*
X3186000Y988000D03*
X3173000Y1979000D03*
Y1779000D03*
X2974000Y2160000D03*
Y2360000D03*
X3553000Y736000D03*
Y936000D03*
Y1333000D03*
Y1133000D03*
G54D20*
X2561000Y1709000D03*
Y1939000D03*
G54D11*
X523000Y851000D03*
X323000D03*
X907000Y3664000D03*
X1560000Y388000D03*
X1561000Y1263000D03*
X1107000Y3664000D03*
X1585000D03*
X1385000D03*
X2219000Y391000D03*
X2019000D03*
X1760000Y388000D03*
X1761000Y1263000D03*
X2322000Y2943000D03*
Y2382000D03*
X2406000Y3480000D03*
X2821000Y807000D03*
X2621000D03*
X2522000Y2943000D03*
Y2382000D03*
X3199000Y2670000D03*
X2999000D03*
X3081000Y3728000D03*
X2825000Y3469000D03*
X3025000D03*
X2606000Y3480000D03*
X3281000Y3728000D03*
X3335000Y3466000D03*
X3535000D03*
G54D21*
G01X530000Y1465000D02*
X547000Y1482000D01*
Y1567000D01*
X587000Y1607000D01*
X616000D01*
X656000Y1647000D01*
Y2621000D01*
X616000Y2661000D01*
X574320D01*
X529660Y2705660D01*
Y3001000D01*
G01X530000Y1265000D02*
Y963210D01*
X523000Y956210D01*
Y851000D01*
G01X868000Y1535000D02*
Y1159200D01*
X838000Y1129200D01*
Y1049000D01*
G01X885000Y2383000D02*
Y2215000D01*
G01D02*
Y1832200D01*
X868000Y1815200D01*
Y1735000D01*
G01Y3017000D02*
Y2694320D01*
X885000Y2677320D01*
Y2583660D01*
G01X1448860Y1794260D02*
Y1584140D01*
X1576000Y1457000D01*
X2133000D01*
X2201140Y1388860D01*
Y1157740D01*
G01X1241000Y1328000D02*
X1415800D01*
X1480800Y1263000D01*
X1561000D01*
G01X1241000Y1328000D02*
Y868820D01*
X1254260Y855560D01*
Y777140D01*
G01X1241000Y1328000D02*
X1060000D01*
G01X1334860Y2320260D02*
X1239000D01*
X1188000Y2269260D01*
Y1661200D01*
X1241000Y1608200D01*
Y1528000D01*
G01X1448860Y1794260D02*
X1685000D01*
G01X1553000Y2000000D02*
X1561000Y2008000D01*
X1749000D01*
X1789000Y1968000D01*
Y1864000D01*
X1829000Y1824000D01*
X1996000D01*
G01X1354000Y2145000D02*
Y2009280D01*
X1344720Y2000000D01*
G01X1230720Y2526000D02*
Y2701280D01*
X1107000Y2825000D01*
Y3664000D01*
G01X1371000Y2902000D02*
Y2711450D01*
X1439000Y2643450D01*
Y2526000D01*
G01X1558000Y2545000D02*
X1458000D01*
X1439000Y2526000D01*
G01X1579280Y2902000D02*
Y2748280D01*
G01X1385000Y3664000D02*
Y3308000D01*
G01X1475140Y3107740D02*
X1621560D01*
X1621820Y3108000D01*
X1685000D01*
G01X2031000Y3304000D02*
X1963300D01*
X1957720Y3309580D01*
X1580780D01*
X1475140Y3203940D01*
Y3107740D01*
G01X2219000Y391000D02*
Y496210D01*
X2220000Y497210D01*
Y710000D01*
X2097000Y833000D01*
Y952000D01*
G01X2019000Y391000D02*
X1843200D01*
X1840200Y388000D01*
X1760000D01*
G01X2097000Y952000D02*
X1801000D01*
X1761000Y992000D01*
Y1263000D01*
G01X2203000Y2593000D02*
X2137260D01*
X2136540Y2592280D01*
X2020000D01*
G01Y2384000D02*
X2239800D01*
X2241800Y2382000D01*
X2322000D01*
G01X2031000Y2936000D02*
X2234800D01*
X2241800Y2943000D01*
X2322000D01*
G01X2014000Y3690280D02*
X2118720D01*
X2203000Y3606000D01*
G01X2031000Y3304000D02*
Y3144280D01*
G01Y3304000D02*
X2189000D01*
X2299880Y3193120D01*
X2829340D01*
X2865720Y3156740D01*
X2944140D01*
G01X2406000Y3480000D02*
X2112200D01*
X2110200Y3482000D01*
X2014000D01*
G01X2561000Y1709000D02*
X2780000D01*
X2820000Y1669000D01*
Y1293000D01*
G01Y1093000D02*
Y913210D01*
X2821000Y912210D01*
Y807000D01*
G01X3186000Y988000D02*
Y1208800D01*
X3181000Y1213800D01*
Y1294000D01*
G01Y1494000D02*
Y1690800D01*
X3173000Y1698800D01*
Y1779000D01*
G01X2561000Y1939000D02*
X2934000D01*
X2974000Y1979000D01*
Y2160000D01*
G01X2522000Y2943000D02*
X2753580D01*
X2761580Y2951000D01*
X2840000D01*
G01X2522000Y2943000D02*
Y3077000D01*
G01Y2382000D02*
Y2943000D01*
G01X2999000Y2670000D02*
Y2465200D01*
X2974000Y2440200D01*
Y2360000D01*
G01X2606000Y3480000D02*
X2733800D01*
X2744800Y3469000D01*
X2825000D01*
G01D02*
Y3653000D01*
X2900000Y3728000D01*
X3081000D01*
G01X2825000Y3469000D02*
Y3327000D01*
G01X3335000Y3466000D02*
X3108200D01*
X3105200Y3469000D01*
X3025000D01*
G01X3553000Y1133000D02*
Y936000D01*
G01Y1333000D02*
X3658210D01*
X3664210Y1339000D01*
X3806000D01*
X3835000Y1368000D01*
Y2581000D01*
X3760000Y2656000D01*
X3613000D01*
X3573000Y2696000D01*
Y2860340D01*
G54D12*
X353000Y1845000D03*
Y2444440D03*
X3576000Y2220000D03*
Y1620560D03*
G54D22*
G01X329000Y3001000D02*
Y3156000D01*
X374000Y3201000D01*
X851340D01*
X868000Y3217660D01*
G01X329000Y3001000D02*
Y2600160D01*
X353000Y2576160D01*
Y2444440D01*
G01X1585000Y3664000D02*
X1570000Y3679000D01*
Y3771000D01*
X1525000Y3816000D01*
X952000D01*
X907000Y3771000D01*
Y3664000D01*
G01D02*
Y3352820D01*
X868000Y3313820D01*
Y3217660D01*
G01X1585000Y3664000D02*
X1667700D01*
X1708530Y3704830D01*
X1770490D01*
X1808260Y3667060D01*
Y3586140D01*
G01X1825260Y3040140D02*
Y2959220D01*
X1814260Y2948220D01*
Y2488140D01*
G01X1808260Y3586140D02*
Y3421260D01*
G01Y3165260D02*
Y3057140D01*
X1825260Y3040140D01*
G01X3199000Y2459000D02*
Y2087700D01*
X3173000Y2061700D01*
Y1979000D01*
G01X3048280Y2951000D02*
X3331280D01*
G01D02*
Y2503280D01*
X3286280Y2458280D01*
X3199720D01*
X3199000Y2459000D01*
G01D02*
Y2670000D01*
G01X3582000Y2459000D02*
Y2357720D01*
X3576000Y2351720D01*
Y2220000D01*
G01X3331280Y2951000D02*
X3441280Y3061000D01*
X3573000D01*
G01D02*
Y3320290D01*
X3535000Y3358290D01*
Y3466000D01*
G01D02*
Y3573710D01*
X3537000Y3575710D01*
Y3688000D01*
X3497000Y3728000D01*
X3281000D01*
G54D13*
X885000Y2215000D03*
X1060000Y1328000D03*
X1685000Y1794260D03*
X1354000Y2145000D03*
X1558000Y2545000D03*
X1579280Y2748280D03*
X1385000Y3308000D03*
X1685000Y3108000D03*
X2203000Y2593000D03*
X2031000Y3304000D03*
X2203000Y3606000D03*
X1808260Y3421260D03*
Y3165260D03*
X3199000Y2459000D03*
X2522000Y3077000D03*
X2825000Y3327000D03*
X3582000Y2459000D03*
G54D23*
G01X323000Y740690D02*
Y851000D01*
G01X838000Y763700D02*
Y849000D01*
G01X727690D02*
X838000D01*
G01D02*
X948310D01*
G01X323000Y851000D02*
Y961310D01*
G01X237700Y851000D02*
X323000D01*
G01X353000Y1710680D02*
Y1845000D01*
G01D02*
Y1979320D01*
G01X162800Y1845000D02*
X353000D01*
G01D02*
X543200D01*
G01X1460000Y589480D02*
Y673000D01*
G01D02*
Y756520D01*
G01X1358700Y673000D02*
X1460000D01*
G01D02*
X1561300D01*
G01X1560000Y277690D02*
Y388000D01*
G01D02*
Y498310D01*
G01X1474700Y388000D02*
X1560000D01*
G01X2305280Y850700D02*
Y952000D01*
G01D02*
Y1053300D01*
G01X2221760Y952000D02*
X2305280D01*
G01D02*
X2388800D01*
G01X2621000Y696690D02*
Y807000D01*
G01X3186000Y702700D02*
Y788000D01*
G01X2621000Y807000D02*
Y917310D01*
G01X2535700Y807000D02*
X2621000D01*
G01X3075690Y788000D02*
X3186000D01*
G01D02*
X3296310D01*
G01X3553000Y650700D02*
Y736000D01*
G01X3442690D02*
X3553000D01*
G01D02*
X3663310D01*
G01X3576000Y1486240D02*
Y1620560D01*
G01D02*
Y1754880D01*
G01X3385800Y1620560D02*
X3576000D01*
G01D02*
X3766200D01*
G54D14*
X885000Y2383000D03*
Y2583660D03*
X868000Y3017000D03*
Y3217660D03*
X3573000Y3061000D03*
Y2860340D03*
G54D15*
X329000Y3001000D03*
X529660D03*
G54D16*
X500000Y3500000D03*
X3500000Y500000D03*
G54D17*
X1254260Y777140D03*
X1460000Y673000D03*
Y881280D03*
X1825260Y3040140D03*
X2031000Y2936000D03*
X1814260Y2488140D03*
X2020000Y2384000D03*
Y2592280D03*
X1808260Y3586140D03*
X2014000Y3482000D03*
Y3690280D03*
X2031000Y3144280D03*
G54D18*
X1334860Y2320260D03*
X1448860Y1794260D03*
X1553000Y2000000D03*
X1344720D03*
X1439000Y2526000D03*
X1230720D03*
X1371000Y2902000D03*
X1579280D03*
X1475140Y3107740D03*
X2201140Y1157740D03*
X2097000Y952000D03*
X2305280D03*
X2840000Y2951000D03*
X3048280D03*
X2944140Y3156740D03*
G54D19*
X1996000Y1824000D03*
M02*
